<svg width="147" height="22" viewBox="0 0 147 22" fill="none" xmlns="http://www.w3.org/2000/svg">
<path d="M10.242 1.592H13.57L15.676 7.702L17.808 1.592H21.11L17.938 9.99L20.278 15.866L25.504 1.54H29.404L22.02 20H18.926L15.676 12.252L12.452 20H9.358L2 1.54H5.848L11.1 15.866L13.388 9.99L10.242 1.592ZM36.227 20.26C34.7536 20.26 33.4796 19.9393 32.405 19.298C31.3476 18.6567 30.5243 17.8073 29.935 16.75C29.3456 15.6753 29.051 14.514 29.051 13.266C29.051 11.9833 29.337 10.8047 29.909 9.73C30.4983 8.638 31.3303 7.77133 32.405 7.13C33.4796 6.47133 34.7623 6.142 36.253 6.142C37.7436 6.142 39.0176 6.47133 40.075 7.13C41.1323 7.77133 41.9383 8.62933 42.493 9.704C43.065 10.7613 43.351 11.9053 43.351 13.136C43.351 13.5867 43.325 13.9767 43.273 14.306H32.743C32.8296 15.3633 33.2196 16.1953 33.913 16.802C34.6236 17.4087 35.4383 17.712 36.357 17.712C37.0503 17.712 37.7003 17.5473 38.307 17.218C38.931 16.8713 39.3556 16.4207 39.581 15.866L42.571 16.698C42.0683 17.738 41.2623 18.596 40.153 19.272C39.0436 19.9307 37.735 20.26 36.227 20.26ZM32.665 12.096H39.789C39.685 11.0733 39.295 10.25 38.619 9.626C37.9603 8.98467 37.1543 8.664 36.201 8.664C35.265 8.664 34.459 8.98467 33.783 9.626C33.1243 10.25 32.7516 11.0733 32.665 12.096ZM54.0014 20.26C52.9614 20.26 52.0341 20.026 51.2194 19.558C50.4048 19.09 49.7634 18.4487 49.2954 17.634V20H46.2534V1.02H49.7374V8.768C50.2228 7.95333 50.8554 7.312 51.6354 6.844C52.4328 6.376 53.3601 6.142 54.4174 6.142C55.5961 6.142 56.6274 6.47133 57.5114 7.13C58.4128 7.77133 59.1148 8.62933 59.6174 9.704C60.1201 10.7787 60.3714 11.9573 60.3714 13.24C60.3714 14.5573 60.0941 15.7447 59.5394 16.802C58.9848 17.8593 58.2221 18.7 57.2514 19.324C56.2981 19.948 55.2148 20.26 54.0014 20.26ZM53.0394 17.296C53.7848 17.296 54.4348 17.114 54.9894 16.75C55.5614 16.386 56.0034 15.9007 56.3154 15.294C56.6448 14.67 56.8094 13.994 56.8094 13.266C56.8094 12.5207 56.6534 11.836 56.3414 11.212C56.0468 10.5707 55.6308 10.0593 55.0934 9.678C54.5561 9.29667 53.9408 9.106 53.2474 9.106C52.4848 9.106 51.7828 9.366 51.1414 9.886C50.5174 10.3887 50.0494 11.0127 49.7374 11.758V15.008C49.9628 15.684 50.4048 16.2387 51.0634 16.672C51.7221 17.088 52.3808 17.296 53.0394 17.296ZM74.6448 6.376C74.4888 6.20267 74.1595 5.97733 73.6568 5.7C73.1541 5.40533 72.5475 5.14533 71.8368 4.92C71.1435 4.67733 70.4241 4.556 69.6788 4.556C67.7201 4.556 66.7408 5.24933 66.7408 6.636C66.7408 7.13867 66.8968 7.53733 67.2088 7.832C67.5208 8.12667 67.9888 8.378 68.6128 8.586C69.2368 8.794 70.0168 9.01933 70.9528 9.262C72.1661 9.574 73.2148 9.938 74.0988 10.354C75.0001 10.77 75.6848 11.3247 76.1528 12.018C76.6381 12.694 76.8808 13.5953 76.8808 14.722C76.8808 16.0393 76.5601 17.1053 75.9188 17.92C75.2948 18.7173 74.4628 19.298 73.4228 19.662C72.3828 20.026 71.2561 20.208 70.0428 20.208C68.6561 20.208 67.2781 20 65.9088 19.584C64.5568 19.1507 63.3521 18.5613 62.2948 17.816L63.8808 14.722C64.0368 14.878 64.3141 15.086 64.7128 15.346C65.1115 15.5887 65.5968 15.84 66.1688 16.1C66.7408 16.3427 67.3648 16.5507 68.0408 16.724C68.7168 16.8973 69.4015 16.984 70.0948 16.984C72.0708 16.984 73.0588 16.3513 73.0588 15.086C73.0588 14.5487 72.8595 14.1153 72.4608 13.786C72.0621 13.4567 71.4988 13.1793 70.7708 12.954C70.0601 12.7287 69.2281 12.4773 68.2748 12.2C67.0961 11.8707 66.1168 11.5067 65.3368 11.108C64.5741 10.692 64.0021 10.1807 63.6208 9.574C63.2395 8.95 63.0488 8.16133 63.0488 7.208C63.0488 5.94267 63.3435 4.88533 63.9328 4.036C64.5395 3.16933 65.3541 2.51933 66.3768 2.086C67.3995 1.63533 68.5348 1.41 69.7828 1.41C71.0655 1.41 72.2615 1.618 73.3708 2.034C74.4801 2.45 75.4335 2.92667 76.2308 3.464L74.6448 6.376ZM87.8934 19.298C87.4254 19.506 86.8448 19.714 86.1514 19.922C85.4754 20.13 84.7734 20.234 84.0454 20.234C83.4041 20.234 82.8148 20.1213 82.2774 19.896C81.7401 19.6707 81.3068 19.3153 80.9774 18.83C80.6654 18.3273 80.5094 17.6773 80.5094 16.88V9.054H78.7154V6.376H80.5094V1.956H83.9934V6.376H86.8534V9.054H83.9934V15.71C83.9934 16.178 84.1148 16.516 84.3574 16.724C84.6174 16.932 84.9294 17.036 85.2934 17.036C85.6574 17.036 86.0128 16.9753 86.3594 16.854C86.7061 16.7327 86.9834 16.6287 87.1914 16.542L87.8934 19.298ZM90.358 14.904V6.376H93.842V14.15C93.842 16.2473 94.596 17.296 96.104 17.296C96.78 17.296 97.43 17.0967 98.054 16.698C98.6953 16.282 99.2153 15.658 99.614 14.826V6.376H103.098V16.1C103.098 16.4813 103.159 16.75 103.28 16.906C103.401 17.0447 103.618 17.1313 103.93 17.166V20C103.583 20.0693 103.289 20.1127 103.046 20.13C102.821 20.1473 102.613 20.156 102.422 20.156C101.798 20.156 101.287 20.0173 100.888 19.74C100.507 19.4453 100.281 19.0467 100.212 18.544L100.134 17.452C99.5273 18.388 98.7473 19.09 97.794 19.558C96.8406 20.026 95.792 20.26 94.648 20.26C93.244 20.26 92.178 19.8093 91.45 18.908C90.722 17.9893 90.358 16.6547 90.358 14.904ZM106.508 13.188C106.508 11.888 106.768 10.7007 107.288 9.626C107.808 8.55133 108.528 7.702 109.446 7.078C110.365 6.454 111.414 6.142 112.592 6.142C113.598 6.142 114.499 6.39333 115.296 6.896C116.111 7.38133 116.744 8.00533 117.194 8.768V1.02H120.678V16.1C120.678 16.4813 120.739 16.75 120.86 16.906C120.982 17.0447 121.19 17.1313 121.484 17.166V20C120.86 20.1213 120.366 20.182 120.002 20.182C119.378 20.182 118.858 20.026 118.442 19.714C118.044 19.402 117.818 18.9947 117.766 18.492L117.714 17.634C117.212 18.4833 116.527 19.1333 115.66 19.584C114.811 20.0347 113.918 20.26 112.982 20.26C111.717 20.26 110.599 19.948 109.628 19.324C108.658 18.6827 107.895 17.8333 107.34 16.776C106.786 15.7013 106.508 14.5053 106.508 13.188ZM117.194 15.008V11.758C116.917 10.9953 116.44 10.3627 115.764 9.86C115.088 9.35733 114.395 9.106 113.684 9.106C112.974 9.106 112.35 9.30533 111.812 9.704C111.275 10.0853 110.859 10.5967 110.564 11.238C110.27 11.862 110.122 12.538 110.122 13.266C110.122 14.0113 110.287 14.696 110.616 15.32C110.946 15.9267 111.388 16.412 111.942 16.776C112.514 17.1227 113.164 17.296 113.892 17.296C114.551 17.296 115.201 17.0793 115.842 16.646C116.501 16.2127 116.952 15.6667 117.194 15.008ZM124.878 4.478V1.02H128.362V4.478H124.878ZM124.878 20V6.376H128.362V20H124.878ZM138.577 20.26C137.086 20.26 135.804 19.9393 134.729 19.298C133.672 18.6393 132.857 17.7727 132.285 16.698C131.713 15.6233 131.427 14.462 131.427 13.214C131.427 11.9487 131.713 10.7787 132.285 9.704C132.874 8.62933 133.698 7.77133 134.755 7.13C135.83 6.47133 137.104 6.142 138.577 6.142C140.05 6.142 141.316 6.47133 142.373 7.13C143.448 7.77133 144.271 8.62933 144.843 9.704C145.415 10.7787 145.701 11.9487 145.701 13.214C145.701 14.462 145.415 15.6233 144.843 16.698C144.271 17.7727 143.448 18.6393 142.373 19.298C141.316 19.9393 140.05 20.26 138.577 20.26ZM135.015 13.214C135.015 14.0113 135.171 14.722 135.483 15.346C135.795 15.9527 136.22 16.4293 136.757 16.776C137.294 17.1227 137.901 17.296 138.577 17.296C139.236 17.296 139.834 17.1227 140.371 16.776C140.908 16.412 141.333 15.9267 141.645 15.32C141.974 14.696 142.139 13.9853 142.139 13.188C142.139 12.408 141.974 11.7147 141.645 11.108C141.333 10.484 140.908 9.99867 140.371 9.652C139.834 9.288 139.236 9.106 138.577 9.106C137.901 9.106 137.294 9.288 136.757 9.652C136.22 9.99867 135.795 10.484 135.483 11.108C135.171 11.7147 135.015 12.4167 135.015 13.214Z" fill="#2196F3"/>
<path d="M10.242 1.592H13.57L15.676 7.702L17.808 1.592H21.11L17.938 9.99L20.278 15.866L25.504 1.54H29.404L22.02 20H18.926L15.676 12.252L12.452 20H9.358L2 1.54H5.848L11.1 15.866L13.388 9.99L10.242 1.592ZM36.227 20.26C34.7536 20.26 33.4796 19.9393 32.405 19.298C31.3476 18.6567 30.5243 17.8073 29.935 16.75C29.3456 15.6753 29.051 14.514 29.051 13.266C29.051 11.9833 29.337 10.8047 29.909 9.73C30.4983 8.638 31.3303 7.77133 32.405 7.13C33.4796 6.47133 34.7623 6.142 36.253 6.142C37.7436 6.142 39.0176 6.47133 40.075 7.13C41.1323 7.77133 41.9383 8.62933 42.493 9.704C43.065 10.7613 43.351 11.9053 43.351 13.136C43.351 13.5867 43.325 13.9767 43.273 14.306H32.743C32.8296 15.3633 33.2196 16.1953 33.913 16.802C34.6236 17.4087 35.4383 17.712 36.357 17.712C37.0503 17.712 37.7003 17.5473 38.307 17.218C38.931 16.8713 39.3556 16.4207 39.581 15.866L42.571 16.698C42.0683 17.738 41.2623 18.596 40.153 19.272C39.0436 19.9307 37.735 20.26 36.227 20.26ZM32.665 12.096H39.789C39.685 11.0733 39.295 10.25 38.619 9.626C37.9603 8.98467 37.1543 8.664 36.201 8.664C35.265 8.664 34.459 8.98467 33.783 9.626C33.1243 10.25 32.7516 11.0733 32.665 12.096ZM54.0014 20.26C52.9614 20.26 52.0341 20.026 51.2194 19.558C50.4048 19.09 49.7634 18.4487 49.2954 17.634V20H46.2534V1.02H49.7374V8.768C50.2228 7.95333 50.8554 7.312 51.6354 6.844C52.4328 6.376 53.3601 6.142 54.4174 6.142C55.5961 6.142 56.6274 6.47133 57.5114 7.13C58.4128 7.77133 59.1148 8.62933 59.6174 9.704C60.1201 10.7787 60.3714 11.9573 60.3714 13.24C60.3714 14.5573 60.0941 15.7447 59.5394 16.802C58.9848 17.8593 58.2221 18.7 57.2514 19.324C56.2981 19.948 55.2148 20.26 54.0014 20.26ZM53.0394 17.296C53.7848 17.296 54.4348 17.114 54.9894 16.75C55.5614 16.386 56.0034 15.9007 56.3154 15.294C56.6448 14.67 56.8094 13.994 56.8094 13.266C56.8094 12.5207 56.6534 11.836 56.3414 11.212C56.0468 10.5707 55.6308 10.0593 55.0934 9.678C54.5561 9.29667 53.9408 9.106 53.2474 9.106C52.4848 9.106 51.7828 9.366 51.1414 9.886C50.5174 10.3887 50.0494 11.0127 49.7374 11.758V15.008C49.9628 15.684 50.4048 16.2387 51.0634 16.672C51.7221 17.088 52.3808 17.296 53.0394 17.296ZM74.6448 6.376C74.4888 6.20267 74.1595 5.97733 73.6568 5.7C73.1541 5.40533 72.5475 5.14533 71.8368 4.92C71.1435 4.67733 70.4241 4.556 69.6788 4.556C67.7201 4.556 66.7408 5.24933 66.7408 6.636C66.7408 7.13867 66.8968 7.53733 67.2088 7.832C67.5208 8.12667 67.9888 8.378 68.6128 8.586C69.2368 8.794 70.0168 9.01933 70.9528 9.262C72.1661 9.574 73.2148 9.938 74.0988 10.354C75.0001 10.77 75.6848 11.3247 76.1528 12.018C76.6381 12.694 76.8808 13.5953 76.8808 14.722C76.8808 16.0393 76.5601 17.1053 75.9188 17.92C75.2948 18.7173 74.4628 19.298 73.4228 19.662C72.3828 20.026 71.2561 20.208 70.0428 20.208C68.6561 20.208 67.2781 20 65.9088 19.584C64.5568 19.1507 63.3521 18.5613 62.2948 17.816L63.8808 14.722C64.0368 14.878 64.3141 15.086 64.7128 15.346C65.1115 15.5887 65.5968 15.84 66.1688 16.1C66.7408 16.3427 67.3648 16.5507 68.0408 16.724C68.7168 16.8973 69.4015 16.984 70.0948 16.984C72.0708 16.984 73.0588 16.3513 73.0588 15.086C73.0588 14.5487 72.8595 14.1153 72.4608 13.786C72.0621 13.4567 71.4988 13.1793 70.7708 12.954C70.0601 12.7287 69.2281 12.4773 68.2748 12.2C67.0961 11.8707 66.1168 11.5067 65.3368 11.108C64.5741 10.692 64.0021 10.1807 63.6208 9.574C63.2395 8.95 63.0488 8.16133 63.0488 7.208C63.0488 5.94267 63.3435 4.88533 63.9328 4.036C64.5395 3.16933 65.3541 2.51933 66.3768 2.086C67.3995 1.63533 68.5348 1.41 69.7828 1.41C71.0655 1.41 72.2615 1.618 73.3708 2.034C74.4801 2.45 75.4335 2.92667 76.2308 3.464L74.6448 6.376ZM87.8934 19.298C87.4254 19.506 86.8448 19.714 86.1514 19.922C85.4754 20.13 84.7734 20.234 84.0454 20.234C83.4041 20.234 82.8148 20.1213 82.2774 19.896C81.7401 19.6707 81.3068 19.3153 80.9774 18.83C80.6654 18.3273 80.5094 17.6773 80.5094 16.88V9.054H78.7154V6.376H80.5094V1.956H83.9934V6.376H86.8534V9.054H83.9934V15.71C83.9934 16.178 84.1148 16.516 84.3574 16.724C84.6174 16.932 84.9294 17.036 85.2934 17.036C85.6574 17.036 86.0128 16.9753 86.3594 16.854C86.7061 16.7327 86.9834 16.6287 87.1914 16.542L87.8934 19.298ZM90.358 14.904V6.376H93.842V14.15C93.842 16.2473 94.596 17.296 96.104 17.296C96.78 17.296 97.43 17.0967 98.054 16.698C98.6953 16.282 99.2153 15.658 99.614 14.826V6.376H103.098V16.1C103.098 16.4813 103.159 16.75 103.28 16.906C103.401 17.0447 103.618 17.1313 103.93 17.166V20C103.583 20.0693 103.289 20.1127 103.046 20.13C102.821 20.1473 102.613 20.156 102.422 20.156C101.798 20.156 101.287 20.0173 100.888 19.74C100.507 19.4453 100.281 19.0467 100.212 18.544L100.134 17.452C99.5273 18.388 98.7473 19.09 97.794 19.558C96.8406 20.026 95.792 20.26 94.648 20.26C93.244 20.26 92.178 19.8093 91.45 18.908C90.722 17.9893 90.358 16.6547 90.358 14.904ZM106.508 13.188C106.508 11.888 106.768 10.7007 107.288 9.626C107.808 8.55133 108.528 7.702 109.446 7.078C110.365 6.454 111.414 6.142 112.592 6.142C113.598 6.142 114.499 6.39333 115.296 6.896C116.111 7.38133 116.744 8.00533 117.194 8.768V1.02H120.678V16.1C120.678 16.4813 120.739 16.75 120.86 16.906C120.982 17.0447 121.19 17.1313 121.484 17.166V20C120.86 20.1213 120.366 20.182 120.002 20.182C119.378 20.182 118.858 20.026 118.442 19.714C118.044 19.402 117.818 18.9947 117.766 18.492L117.714 17.634C117.212 18.4833 116.527 19.1333 115.66 19.584C114.811 20.0347 113.918 20.26 112.982 20.26C111.717 20.26 110.599 19.948 109.628 19.324C108.658 18.6827 107.895 17.8333 107.34 16.776C106.786 15.7013 106.508 14.5053 106.508 13.188ZM117.194 15.008V11.758C116.917 10.9953 116.44 10.3627 115.764 9.86C115.088 9.35733 114.395 9.106 113.684 9.106C112.974 9.106 112.35 9.30533 111.812 9.704C111.275 10.0853 110.859 10.5967 110.564 11.238C110.27 11.862 110.122 12.538 110.122 13.266C110.122 14.0113 110.287 14.696 110.616 15.32C110.946 15.9267 111.388 16.412 111.942 16.776C112.514 17.1227 113.164 17.296 113.892 17.296C114.551 17.296 115.201 17.0793 115.842 16.646C116.501 16.2127 116.952 15.6667 117.194 15.008ZM124.878 4.478V1.02H128.362V4.478H124.878ZM124.878 20V6.376H128.362V20H124.878ZM138.577 20.26C137.086 20.26 135.804 19.9393 134.729 19.298C133.672 18.6393 132.857 17.7727 132.285 16.698C131.713 15.6233 131.427 14.462 131.427 13.214C131.427 11.9487 131.713 10.7787 132.285 9.704C132.874 8.62933 133.698 7.77133 134.755 7.13C135.83 6.47133 137.104 6.142 138.577 6.142C140.05 6.142 141.316 6.47133 142.373 7.13C143.448 7.77133 144.271 8.62933 144.843 9.704C145.415 10.7787 145.701 11.9487 145.701 13.214C145.701 14.462 145.415 15.6233 144.843 16.698C144.271 17.7727 143.448 18.6393 142.373 19.298C141.316 19.9393 140.05 20.26 138.577 20.26ZM135.015 13.214C135.015 14.0113 135.171 14.722 135.483 15.346C135.795 15.9527 136.22 16.4293 136.757 16.776C137.294 17.1227 137.901 17.296 138.577 17.296C139.236 17.296 139.834 17.1227 140.371 16.776C140.908 16.412 141.333 15.9267 141.645 15.32C141.974 14.696 142.139 13.9853 142.139 13.188C142.139 12.408 141.974 11.7147 141.645 11.108C141.333 10.484 140.908 9.99867 140.371 9.652C139.834 9.288 139.236 9.106 138.577 9.106C137.901 9.106 137.294 9.288 136.757 9.652C136.22 9.99867 135.795 10.484 135.483 11.108C135.171 11.7147 135.015 12.4167 135.015 13.214Z" fill="black" fill-opacity="0.2"/>
<path d="M10.242 1.592H13.57L15.676 7.702L17.808 1.592H21.11L17.938 9.99L20.278 15.866L25.504 1.54H29.404L22.02 20H18.926L15.676 12.252L12.452 20H9.358L2 1.54H5.848L11.1 15.866L13.388 9.99L10.242 1.592ZM36.227 20.26C34.7536 20.26 33.4796 19.9393 32.405 19.298C31.3476 18.6567 30.5243 17.8073 29.935 16.75C29.3456 15.6753 29.051 14.514 29.051 13.266C29.051 11.9833 29.337 10.8047 29.909 9.73C30.4983 8.638 31.3303 7.77133 32.405 7.13C33.4796 6.47133 34.7623 6.142 36.253 6.142C37.7436 6.142 39.0176 6.47133 40.075 7.13C41.1323 7.77133 41.9383 8.62933 42.493 9.704C43.065 10.7613 43.351 11.9053 43.351 13.136C43.351 13.5867 43.325 13.9767 43.273 14.306H32.743C32.8296 15.3633 33.2196 16.1953 33.913 16.802C34.6236 17.4087 35.4383 17.712 36.357 17.712C37.0503 17.712 37.7003 17.5473 38.307 17.218C38.931 16.8713 39.3556 16.4207 39.581 15.866L42.571 16.698C42.0683 17.738 41.2623 18.596 40.153 19.272C39.0436 19.9307 37.735 20.26 36.227 20.26ZM32.665 12.096H39.789C39.685 11.0733 39.295 10.25 38.619 9.626C37.9603 8.98467 37.1543 8.664 36.201 8.664C35.265 8.664 34.459 8.98467 33.783 9.626C33.1243 10.25 32.7516 11.0733 32.665 12.096ZM54.0014 20.26C52.9614 20.26 52.0341 20.026 51.2194 19.558C50.4048 19.09 49.7634 18.4487 49.2954 17.634V20H46.2534V1.02H49.7374V8.768C50.2228 7.95333 50.8554 7.312 51.6354 6.844C52.4328 6.376 53.3601 6.142 54.4174 6.142C55.5961 6.142 56.6274 6.47133 57.5114 7.13C58.4128 7.77133 59.1148 8.62933 59.6174 9.704C60.1201 10.7787 60.3714 11.9573 60.3714 13.24C60.3714 14.5573 60.0941 15.7447 59.5394 16.802C58.9848 17.8593 58.2221 18.7 57.2514 19.324C56.2981 19.948 55.2148 20.26 54.0014 20.26ZM53.0394 17.296C53.7848 17.296 54.4348 17.114 54.9894 16.75C55.5614 16.386 56.0034 15.9007 56.3154 15.294C56.6448 14.67 56.8094 13.994 56.8094 13.266C56.8094 12.5207 56.6534 11.836 56.3414 11.212C56.0468 10.5707 55.6308 10.0593 55.0934 9.678C54.5561 9.29667 53.9408 9.106 53.2474 9.106C52.4848 9.106 51.7828 9.366 51.1414 9.886C50.5174 10.3887 50.0494 11.0127 49.7374 11.758V15.008C49.9628 15.684 50.4048 16.2387 51.0634 16.672C51.7221 17.088 52.3808 17.296 53.0394 17.296ZM74.6448 6.376C74.4888 6.20267 74.1595 5.97733 73.6568 5.7C73.1541 5.40533 72.5475 5.14533 71.8368 4.92C71.1435 4.67733 70.4241 4.556 69.6788 4.556C67.7201 4.556 66.7408 5.24933 66.7408 6.636C66.7408 7.13867 66.8968 7.53733 67.2088 7.832C67.5208 8.12667 67.9888 8.378 68.6128 8.586C69.2368 8.794 70.0168 9.01933 70.9528 9.262C72.1661 9.574 73.2148 9.938 74.0988 10.354C75.0001 10.77 75.6848 11.3247 76.1528 12.018C76.6381 12.694 76.8808 13.5953 76.8808 14.722C76.8808 16.0393 76.5601 17.1053 75.9188 17.92C75.2948 18.7173 74.4628 19.298 73.4228 19.662C72.3828 20.026 71.2561 20.208 70.0428 20.208C68.6561 20.208 67.2781 20 65.9088 19.584C64.5568 19.1507 63.3521 18.5613 62.2948 17.816L63.8808 14.722C64.0368 14.878 64.3141 15.086 64.7128 15.346C65.1115 15.5887 65.5968 15.84 66.1688 16.1C66.7408 16.3427 67.3648 16.5507 68.0408 16.724C68.7168 16.8973 69.4015 16.984 70.0948 16.984C72.0708 16.984 73.0588 16.3513 73.0588 15.086C73.0588 14.5487 72.8595 14.1153 72.4608 13.786C72.0621 13.4567 71.4988 13.1793 70.7708 12.954C70.0601 12.7287 69.2281 12.4773 68.2748 12.2C67.0961 11.8707 66.1168 11.5067 65.3368 11.108C64.5741 10.692 64.0021 10.1807 63.6208 9.574C63.2395 8.95 63.0488 8.16133 63.0488 7.208C63.0488 5.94267 63.3435 4.88533 63.9328 4.036C64.5395 3.16933 65.3541 2.51933 66.3768 2.086C67.3995 1.63533 68.5348 1.41 69.7828 1.41C71.0655 1.41 72.2615 1.618 73.3708 2.034C74.4801 2.45 75.4335 2.92667 76.2308 3.464L74.6448 6.376ZM87.8934 19.298C87.4254 19.506 86.8448 19.714 86.1514 19.922C85.4754 20.13 84.7734 20.234 84.0454 20.234C83.4041 20.234 82.8148 20.1213 82.2774 19.896C81.7401 19.6707 81.3068 19.3153 80.9774 18.83C80.6654 18.3273 80.5094 17.6773 80.5094 16.88V9.054H78.7154V6.376H80.5094V1.956H83.9934V6.376H86.8534V9.054H83.9934V15.71C83.9934 16.178 84.1148 16.516 84.3574 16.724C84.6174 16.932 84.9294 17.036 85.2934 17.036C85.6574 17.036 86.0128 16.9753 86.3594 16.854C86.7061 16.7327 86.9834 16.6287 87.1914 16.542L87.8934 19.298ZM90.358 14.904V6.376H93.842V14.15C93.842 16.2473 94.596 17.296 96.104 17.296C96.78 17.296 97.43 17.0967 98.054 16.698C98.6953 16.282 99.2153 15.658 99.614 14.826V6.376H103.098V16.1C103.098 16.4813 103.159 16.75 103.28 16.906C103.401 17.0447 103.618 17.1313 103.93 17.166V20C103.583 20.0693 103.289 20.1127 103.046 20.13C102.821 20.1473 102.613 20.156 102.422 20.156C101.798 20.156 101.287 20.0173 100.888 19.74C100.507 19.4453 100.281 19.0467 100.212 18.544L100.134 17.452C99.5273 18.388 98.7473 19.09 97.794 19.558C96.8406 20.026 95.792 20.26 94.648 20.26C93.244 20.26 92.178 19.8093 91.45 18.908C90.722 17.9893 90.358 16.6547 90.358 14.904ZM106.508 13.188C106.508 11.888 106.768 10.7007 107.288 9.626C107.808 8.55133 108.528 7.702 109.446 7.078C110.365 6.454 111.414 6.142 112.592 6.142C113.598 6.142 114.499 6.39333 115.296 6.896C116.111 7.38133 116.744 8.00533 117.194 8.768V1.02H120.678V16.1C120.678 16.4813 120.739 16.75 120.86 16.906C120.982 17.0447 121.19 17.1313 121.484 17.166V20C120.86 20.1213 120.366 20.182 120.002 20.182C119.378 20.182 118.858 20.026 118.442 19.714C118.044 19.402 117.818 18.9947 117.766 18.492L117.714 17.634C117.212 18.4833 116.527 19.1333 115.66 19.584C114.811 20.0347 113.918 20.26 112.982 20.26C111.717 20.26 110.599 19.948 109.628 19.324C108.658 18.6827 107.895 17.8333 107.34 16.776C106.786 15.7013 106.508 14.5053 106.508 13.188ZM117.194 15.008V11.758C116.917 10.9953 116.44 10.3627 115.764 9.86C115.088 9.35733 114.395 9.106 113.684 9.106C112.974 9.106 112.35 9.30533 111.812 9.704C111.275 10.0853 110.859 10.5967 110.564 11.238C110.27 11.862 110.122 12.538 110.122 13.266C110.122 14.0113 110.287 14.696 110.616 15.32C110.946 15.9267 111.388 16.412 111.942 16.776C112.514 17.1227 113.164 17.296 113.892 17.296C114.551 17.296 115.201 17.0793 115.842 16.646C116.501 16.2127 116.952 15.6667 117.194 15.008ZM124.878 4.478V1.02H128.362V4.478H124.878ZM124.878 20V6.376H128.362V20H124.878ZM138.577 20.26C137.086 20.26 135.804 19.9393 134.729 19.298C133.672 18.6393 132.857 17.7727 132.285 16.698C131.713 15.6233 131.427 14.462 131.427 13.214C131.427 11.9487 131.713 10.7787 132.285 9.704C132.874 8.62933 133.698 7.77133 134.755 7.13C135.83 6.47133 137.104 6.142 138.577 6.142C140.05 6.142 141.316 6.47133 142.373 7.13C143.448 7.77133 144.271 8.62933 144.843 9.704C145.415 10.7787 145.701 11.9487 145.701 13.214C145.701 14.462 145.415 15.6233 144.843 16.698C144.271 17.7727 143.448 18.6393 142.373 19.298C141.316 19.9393 140.05 20.26 138.577 20.26ZM135.015 13.214C135.015 14.0113 135.171 14.722 135.483 15.346C135.795 15.9527 136.22 16.4293 136.757 16.776C137.294 17.1227 137.901 17.296 138.577 17.296C139.236 17.296 139.834 17.1227 140.371 16.776C140.908 16.412 141.333 15.9267 141.645 15.32C141.974 14.696 142.139 13.9853 142.139 13.188C142.139 12.408 141.974 11.7147 141.645 11.108C141.333 10.484 140.908 9.99867 140.371 9.652C139.834 9.288 139.236 9.106 138.577 9.106C137.901 9.106 137.294 9.288 136.757 9.652C136.22 9.99867 135.795 10.484 135.483 11.108C135.171 11.7147 135.015 12.4167 135.015 13.214Z" fill="black" fill-opacity="0.2"/>
<path d="M10.242 1.592V0.592H8.79952L9.30555 1.94281L10.242 1.592ZM13.57 1.592L14.5154 1.26613L14.2831 0.592H13.57V1.592ZM15.676 7.702L14.7306 8.02787L15.6702 10.7539L16.6202 8.03146L15.676 7.702ZM17.808 1.592V0.592H17.0978L16.8638 1.26254L17.808 1.592ZM21.11 1.592L22.0455 1.94534L22.5567 0.592H21.11V1.592ZM17.938 9.99L17.0025 9.63666L16.8654 9.99956L17.009 10.36L17.938 9.99ZM20.278 15.866L19.349 16.236L20.319 18.6717L21.2174 16.2087L20.278 15.866ZM25.504 1.54V0.539999H24.8043L24.5646 1.1973L25.504 1.54ZM29.404 1.54L30.3325 1.91139L30.881 0.539999H29.404V1.54ZM22.02 20V21H22.697L22.9485 20.3714L22.02 20ZM18.926 20L18.0038 20.3868L18.2611 21H18.926V20ZM15.676 12.252L16.5982 11.8652L15.6723 9.65793L14.7527 11.8678L15.676 12.252ZM12.452 20V21H13.119L13.3753 20.3842L12.452 20ZM9.358 20L8.42907 20.3703L8.68008 21H9.358V20ZM2 1.54V0.539999H0.524898L1.07107 1.91026L2 1.54ZM5.848 1.54L6.78689 1.19579L6.54648 0.539999H5.848V1.54ZM11.1 15.866L10.1611 16.2102L11.0718 18.6944L12.0319 16.2288L11.1 15.866ZM13.388 9.99L14.3199 10.3528L14.4584 9.9969L14.3244 9.63919L13.388 9.99ZM10.242 2.592H13.57V0.592H10.242V2.592ZM12.6246 1.91787L14.7306 8.02787L16.6214 7.37613L14.5154 1.26613L12.6246 1.91787ZM16.6202 8.03146L18.7522 1.92146L16.8638 1.26254L14.7318 7.37254L16.6202 8.03146ZM17.808 2.592H21.11V0.592H17.808V2.592ZM20.1745 1.23866L17.0025 9.63666L18.8735 10.3433L22.0455 1.94534L20.1745 1.23866ZM17.009 10.36L19.349 16.236L21.207 15.496L18.867 9.62003L17.009 10.36ZM21.2174 16.2087L26.4434 1.8827L24.5646 1.1973L19.3386 15.5233L21.2174 16.2087ZM25.504 2.54H29.404V0.539999H25.504V2.54ZM28.4755 1.16861L21.0915 19.6286L22.9485 20.3714L30.3325 1.91139L28.4755 1.16861ZM22.02 19H18.926V21H22.02V19ZM19.8482 19.6132L16.5982 11.8652L14.7538 12.6388L18.0038 20.3868L19.8482 19.6132ZM14.7527 11.8678L11.5287 19.6158L13.3753 20.3842L16.5993 12.6362L14.7527 11.8678ZM12.452 19H9.358V21H12.452V19ZM10.2869 19.6297L2.92893 1.16974L1.07107 1.91026L8.42907 20.3703L10.2869 19.6297ZM2 2.54H5.848V0.539999H2V2.54ZM4.90911 1.8842L10.1611 16.2102L12.0389 15.5218L6.78689 1.19579L4.90911 1.8842ZM12.0319 16.2288L14.3199 10.3528L12.4562 9.62716L10.1682 15.5032L12.0319 16.2288ZM14.3244 9.63919L11.1784 1.24119L9.30555 1.94281L12.4516 10.3408L14.3244 9.63919ZM32.405 19.298L31.8863 20.153L31.8925 20.1567L32.405 19.298ZM29.935 16.75L29.0581 17.2308L29.0615 17.2369L29.935 16.75ZM29.909 9.73L29.0289 9.25506L29.0262 9.26015L29.909 9.73ZM32.405 7.13L32.9175 7.98877L32.9275 7.9826L32.405 7.13ZM40.075 7.13L39.5462 7.97884L39.5564 7.98501L40.075 7.13ZM42.493 9.704L41.6043 10.1626L41.6088 10.1713L41.6134 10.1798L42.493 9.704ZM43.273 14.306V15.306H44.1275L44.2607 14.462L43.273 14.306ZM32.743 14.306V13.306H31.6576L31.7463 14.3877L32.743 14.306ZM33.913 16.802L33.2544 17.5546L33.2637 17.5626L33.913 16.802ZM38.307 17.218L38.7841 18.0969L38.7926 18.0922L38.307 17.218ZM39.581 15.866L39.849 14.9026L38.9901 14.6636L38.6545 15.4896L39.581 15.866ZM42.571 16.698L43.4713 17.1332L43.9922 16.0555L42.839 15.7346L42.571 16.698ZM40.153 19.272L40.6635 20.1319L40.6733 20.1259L40.153 19.272ZM32.665 12.096L31.6685 12.0116L31.5766 13.096H32.665V12.096ZM39.789 12.096V13.096H40.8958L40.7838 11.9948L39.789 12.096ZM38.619 9.626L37.9214 10.3425L37.9309 10.3518L37.9407 10.3608L38.619 9.626ZM33.783 9.626L34.4707 10.352L34.4712 10.3515L33.783 9.626ZM36.227 19.26C34.9018 19.26 33.8116 18.9729 32.9174 18.4393L31.8925 20.1567C33.1477 20.9058 34.6055 21.26 36.227 21.26V19.26ZM32.9236 18.443C32.0111 17.8895 31.3115 17.1657 30.8085 16.2631L29.0615 17.2369C29.7371 18.449 30.6842 19.4238 31.8864 20.153L32.9236 18.443ZM30.8118 16.2692C30.3048 15.3447 30.051 14.3491 30.051 13.266H28.051C28.051 14.6789 28.3865 16.006 29.0582 17.2308L30.8118 16.2692ZM30.051 13.266C30.051 12.1381 30.3009 11.1221 30.7917 10.1998L29.0262 9.26015C28.3731 10.4873 28.051 11.8285 28.051 13.266H30.051ZM30.789 10.2049C31.2919 9.27309 31.9963 8.53844 32.9174 7.98871L31.8925 6.27129C30.6643 7.00422 29.7047 8.00291 29.0289 9.25507L30.789 10.2049ZM32.9275 7.9826C33.8182 7.43669 34.9127 7.142 36.253 7.142V5.142C34.6119 5.142 33.141 5.50598 31.8824 6.2774L32.9275 7.9826ZM36.253 7.142C37.5938 7.142 38.6763 7.43687 39.5462 7.97878L40.6037 6.28122C39.359 5.50579 37.8935 5.142 36.253 5.142V7.142ZM39.5564 7.98501C40.4599 8.53309 41.1361 9.2555 41.6043 10.1626L43.3816 9.24536C42.7405 8.00317 41.8047 7.00958 40.5936 6.27499L39.5564 7.98501ZM41.6134 10.1798C42.1044 11.0874 42.351 12.0674 42.351 13.136H44.351C44.351 11.7433 44.0255 10.4352 43.3725 9.22818L41.6134 10.1798ZM42.351 13.136C42.351 13.5513 42.3268 13.8866 42.2852 14.15L44.2607 14.462C44.3231 14.0667 44.351 13.622 44.351 13.136H42.351ZM43.273 13.306H32.743V15.306H43.273V13.306ZM31.7463 14.3877C31.8507 15.6617 32.3357 16.7507 33.2545 17.5546L34.5715 16.0494C34.1036 15.64 33.8085 15.0649 33.7396 14.2243L31.7463 14.3877ZM33.2637 17.5626C34.152 18.3209 35.1959 18.712 36.357 18.712V16.712C35.6808 16.712 35.0953 16.4965 34.5622 16.0414L33.2637 17.5626ZM36.357 18.712C37.2162 18.712 38.0303 18.5061 38.7841 18.0969L37.8299 16.3391C37.3703 16.5886 36.8844 16.712 36.357 16.712V18.712ZM38.7926 18.0922C39.5762 17.6569 40.1805 17.0471 40.5074 16.2424L38.6545 15.4896C38.5308 15.7942 38.2858 16.0858 37.8213 16.3438L38.7926 18.0922ZM39.3129 16.8294L42.3029 17.6614L42.839 15.7346L39.849 14.9026L39.3129 16.8294ZM41.6706 16.2628C41.2618 17.1086 40.5987 17.8293 39.6326 18.4181L40.6733 20.1259C41.9259 19.3627 42.8748 18.3674 43.4713 17.1332L41.6706 16.2628ZM39.6424 18.4121C38.712 18.9646 37.586 19.26 36.227 19.26V21.26C37.884 21.26 39.3753 20.8968 40.6635 20.1319L39.6424 18.4121ZM32.665 13.096H39.789V11.096H32.665V13.096ZM40.7838 11.9948C40.6583 10.76 40.1739 9.70044 39.2973 8.8912L37.9407 10.3608C38.416 10.7996 38.7117 11.3867 38.7941 12.1972L40.7838 11.9948ZM39.3166 8.90953C38.4637 8.07905 37.4042 7.664 36.201 7.664V9.664C36.9044 9.664 37.4569 9.89028 37.9214 10.3425L39.3166 8.90953ZM36.201 7.664C35.0101 7.664 33.9574 8.08205 33.0947 8.90054L34.4712 10.3515C34.9605 9.88728 35.5198 9.664 36.201 9.664V7.664ZM33.0952 8.90005C32.2349 9.71507 31.773 10.7788 31.6685 12.0116L33.6614 12.1804C33.7303 11.3679 34.0137 10.7849 34.4707 10.352L33.0952 8.90005ZM51.2194 19.558L50.7213 20.4251L50.7213 20.4251L51.2194 19.558ZM49.2954 17.634L50.1625 17.1359L48.2954 13.8857V17.634H49.2954ZM49.2954 20V21H50.2954V20H49.2954ZM46.2534 20H45.2534V21H46.2534V20ZM46.2534 1.02V0.0199995H45.2534V1.02H46.2534ZM49.7374 1.02H50.7374V0.0199995H49.7374V1.02ZM49.7374 8.768H48.7374V12.4004L50.5965 9.2798L49.7374 8.768ZM51.6354 6.844L51.1292 5.98154L51.1209 5.98651L51.6354 6.844ZM57.5114 7.13L56.9139 7.93188L56.9227 7.93843L56.9317 7.94479L57.5114 7.13ZM59.6174 9.704L60.5232 9.28031L60.5232 9.28031L59.6174 9.704ZM59.5394 16.802L60.425 17.2665L60.425 17.2665L59.5394 16.802ZM57.2514 19.324L56.7106 18.4828L56.7038 18.4873L57.2514 19.324ZM54.9894 16.75L54.4525 15.9063L54.4408 15.914L54.9894 16.75ZM56.3154 15.294L55.431 14.8272L55.4261 14.8367L56.3154 15.294ZM56.3414 11.212L55.4327 11.6295L55.4396 11.6445L55.447 11.6592L56.3414 11.212ZM55.0934 9.678L54.5147 10.4935L54.5147 10.4935L55.0934 9.678ZM51.1414 9.886L51.7688 10.6648L51.7712 10.6628L51.1414 9.886ZM49.7374 11.758L48.815 11.3719L48.7374 11.5571V11.758H49.7374ZM49.7374 15.008H48.7374V15.1703L48.7887 15.3242L49.7374 15.008ZM51.0634 16.672L50.5138 17.5074L50.5216 17.5125L50.5294 17.5175L51.0634 16.672ZM54.0014 19.26C53.1171 19.26 52.3649 19.0627 51.7175 18.6909L50.7213 20.4251C51.7033 20.9893 52.8058 21.26 54.0014 21.26V19.26ZM51.7175 18.6909C51.0564 18.3111 50.5424 17.7971 50.1625 17.1359L48.4283 18.1321C48.9845 19.1003 49.7532 19.8689 50.7213 20.4251L51.7175 18.6909ZM48.2954 17.634V20H50.2954V17.634H48.2954ZM49.2954 19H46.2534V21H49.2954V19ZM47.2534 20V1.02H45.2534V20H47.2534ZM46.2534 2.02H49.7374V0.0199995H46.2534V2.02ZM48.7374 1.02V8.768H50.7374V1.02H48.7374ZM50.5965 9.2798C51.001 8.60081 51.5177 8.08083 52.1499 7.70149L51.1209 5.98651C50.1932 6.54317 49.4445 7.30585 48.8783 8.25619L50.5965 9.2798ZM52.1416 7.70641C52.7645 7.34081 53.5121 7.142 54.4174 7.142V5.142C53.2081 5.142 52.101 5.41119 51.1292 5.98158L52.1416 7.70641ZM54.4174 7.142C55.3966 7.142 56.2149 7.411 56.9139 7.93188L58.1089 6.32812C57.04 5.53167 55.7956 5.142 54.4174 5.142V7.142ZM56.9317 7.94479C57.6822 8.47884 58.2766 9.19763 58.7116 10.1277L60.5232 9.28031C59.9529 8.06103 59.1433 7.06382 58.0912 6.31521L56.9317 7.94479ZM58.7116 10.1277C59.1473 11.0592 59.3714 12.0917 59.3714 13.24H61.3714C61.3714 11.823 61.0929 10.4981 60.5232 9.28031L58.7116 10.1277ZM59.3714 13.24C59.3714 14.4125 59.1258 15.4378 58.6539 16.3375L60.425 17.2665C61.0623 16.0516 61.3714 14.7021 61.3714 13.24H59.3714ZM58.6539 16.3375C58.1767 17.2471 57.5306 17.9557 56.7107 18.4828L57.7922 20.1652C58.9136 19.4443 59.7928 18.4716 60.425 17.2665L58.6539 16.3375ZM56.7038 18.4873C55.9239 18.9977 55.0334 19.26 54.0014 19.26V21.26C55.3961 21.26 56.6722 20.8983 57.7991 20.1607L56.7038 18.4873ZM53.0394 18.296C53.9548 18.296 54.8008 18.0699 55.5381 17.586L54.4408 15.914C54.0687 16.1581 53.6147 16.296 53.0394 16.296V18.296ZM55.5263 17.5937C56.2489 17.1338 56.8121 16.5147 57.2047 15.7513L55.4261 14.8367C55.1947 15.2866 54.8739 15.6382 54.4525 15.9063L55.5263 17.5937ZM57.1998 15.7608C57.6075 14.9882 57.8094 14.1513 57.8094 13.266H55.8094C55.8094 13.8367 55.682 14.3518 55.431 14.8272L57.1998 15.7608ZM57.8094 13.266C57.8094 12.3763 57.622 11.537 57.2359 10.7648L55.447 11.6592C55.6849 12.135 55.8094 12.665 55.8094 13.266H57.8094ZM57.2501 10.7945C56.8876 10.0056 56.3626 9.3525 55.6722 8.86249L54.5147 10.4935C54.8989 10.7662 55.2059 11.1357 55.4327 11.6295L57.2501 10.7945ZM55.6722 8.86249C54.9566 8.35465 54.1366 8.106 53.2474 8.106V10.106C53.7449 10.106 54.1556 10.2387 54.5147 10.4935L55.6722 8.86249ZM53.2474 8.106C52.2359 8.106 51.3153 8.45759 50.5116 9.10924L51.7712 10.6628C52.2502 10.2744 52.7336 10.106 53.2474 10.106V8.106ZM50.5141 9.10725C49.7595 9.71513 49.1906 10.4745 48.815 11.3719L50.6599 12.1441C50.9082 11.5508 51.2754 11.0622 51.7688 10.6648L50.5141 9.10725ZM48.7374 11.758V15.008H50.7374V11.758H48.7374ZM48.7887 15.3242C49.0927 16.236 49.6888 16.9646 50.5138 17.5074L51.613 15.8366C51.1207 15.5127 50.8328 15.132 50.6861 14.6918L48.7887 15.3242ZM50.5294 17.5175C51.3183 18.0157 52.1595 18.296 53.0394 18.296V16.296C52.602 16.296 52.1259 16.1603 51.5974 15.8265L50.5294 17.5175ZM74.6448 6.376L73.9015 7.04496L74.847 8.0955L75.523 6.8543L74.6448 6.376ZM73.6568 5.7L73.1511 6.5627L73.1623 6.56929L73.1737 6.57558L73.6568 5.7ZM71.8368 4.92L71.5065 5.86386L71.5204 5.86875L71.5346 5.87323L71.8368 4.92ZM68.6128 8.586L68.2966 9.53468L68.2966 9.53468L68.6128 8.586ZM70.9528 9.262L70.7019 10.23L70.7038 10.2305L70.9528 9.262ZM74.0988 10.354L73.673 11.2588L73.6798 11.262L74.0988 10.354ZM76.1528 12.018L75.324 12.5775L75.3321 12.5895L75.3405 12.6012L76.1528 12.018ZM75.9188 17.92L75.1331 17.3014L75.1313 17.3037L75.9188 17.92ZM73.4228 19.662L73.0925 18.7181L73.0925 18.7181L73.4228 19.662ZM65.9088 19.584L65.6036 20.5363L65.6108 20.5386L65.6181 20.5408L65.9088 19.584ZM62.2948 17.816L61.4049 17.3598L61.0087 18.1329L61.7187 18.6333L62.2948 17.816ZM63.8808 14.722L64.5879 14.0149L63.6172 13.0441L62.9909 14.2658L63.8808 14.722ZM64.7128 15.346L64.1665 16.1836L64.1796 16.1921L64.1929 16.2002L64.7128 15.346ZM66.1688 16.1L65.755 17.0104L65.7666 17.0156L65.7783 17.0206L66.1688 16.1ZM68.0408 16.724L67.7924 17.6927L67.7924 17.6927L68.0408 16.724ZM72.4608 13.786L71.8239 14.557L71.8239 14.557L72.4608 13.786ZM70.7708 12.954L70.4686 13.9073L70.4751 13.9093L70.7708 12.954ZM68.2748 12.2L68.5542 11.2398L68.5439 11.2369L68.2748 12.2ZM65.3368 11.108L64.858 11.9859L64.8697 11.9923L64.8817 11.9984L65.3368 11.108ZM63.6208 9.574L62.7675 10.0955L62.7742 10.1062L63.6208 9.574ZM63.9328 4.036L63.1136 3.46253L63.1112 3.46592L63.9328 4.036ZM66.3768 2.086L66.767 3.00675L66.7735 3.00397L66.7801 3.00109L66.3768 2.086ZM76.2308 3.464L77.109 3.9423L77.5442 3.14323L76.7897 2.63473L76.2308 3.464ZM75.3881 5.70703C75.1068 5.39452 74.6385 5.09951 74.1399 4.82442L73.1737 6.57558C73.4081 6.70487 73.5865 6.81361 73.7161 6.90231C73.7805 6.94632 73.8275 6.98185 73.8606 7.00898C73.8948 7.03713 73.9053 7.04913 73.9015 7.04496L75.3881 5.70703ZM74.1625 4.8373C73.5807 4.49623 72.9021 4.2087 72.1391 3.96677L71.5346 5.87323C72.1929 6.08197 72.7276 6.31444 73.1511 6.5627L74.1625 4.8373ZM72.1672 3.97614C71.3661 3.69576 70.535 3.556 69.6788 3.556V5.556C70.3133 5.556 70.9209 5.6589 71.5065 5.86386L72.1672 3.97614ZM69.6788 3.556C68.6119 3.556 67.6327 3.73934 66.8975 4.25983C66.099 4.82517 65.7408 5.67628 65.7408 6.636H67.7408C67.7408 6.20905 67.8723 6.02017 68.0531 5.89217C68.2973 5.71932 68.7871 5.556 69.6788 5.556V3.556ZM65.7408 6.636C65.7408 7.3625 65.9757 8.04289 66.5222 8.55901L67.8954 7.10499C67.8179 7.03178 67.7408 6.91483 67.7408 6.636H65.7408ZM66.5222 8.55901C66.9813 8.99262 67.6009 9.3028 68.2966 9.53468L68.929 7.63732C68.3767 7.4532 68.0603 7.26071 67.8954 7.10499L66.5222 8.55901ZM68.2966 9.53468C68.9495 9.75233 69.753 9.98401 70.7019 10.23L71.2038 8.294C70.2806 8.05466 69.5241 7.83567 68.929 7.63732L68.2966 9.53468ZM70.7038 10.2305C71.8724 10.531 72.8591 10.8758 73.673 11.2588L74.5246 9.44918C73.5706 9.00021 72.4599 8.617 71.2019 8.29351L70.7038 10.2305ZM73.6798 11.262C74.4465 11.6158 74.9758 12.0617 75.324 12.5775L76.9817 11.4585C76.3938 10.5876 75.5538 9.92417 74.5179 9.44604L73.6798 11.262ZM75.3405 12.6012C75.6673 13.0564 75.8808 13.7318 75.8808 14.722H77.8808C77.8808 13.4589 77.609 12.3316 76.9651 11.4348L75.3405 12.6012ZM75.8808 14.722C75.8808 15.8766 75.6018 16.7061 75.1331 17.3014L76.7046 18.5386C77.5185 17.5046 77.8808 16.2021 77.8808 14.722H75.8808ZM75.1313 17.3037C74.6356 17.9371 73.9685 18.4115 73.0925 18.7181L73.7532 20.6059C74.9572 20.1845 75.954 19.4976 76.7063 18.5363L75.1313 17.3037ZM73.0925 18.7181C72.1688 19.0414 71.155 19.208 70.0428 19.208V21.208C71.3573 21.208 72.5968 21.0106 73.7532 20.6059L73.0925 18.7181ZM70.0428 19.208C68.7578 19.208 67.4776 19.0155 66.1995 18.6272L65.6181 20.5408C67.0787 20.9845 68.5545 21.208 70.0428 21.208V19.208ZM66.214 18.6317C64.9493 18.2264 63.8377 17.6801 62.871 16.9987L61.7187 18.6333C62.8666 19.4425 64.1643 20.075 65.6036 20.5363L66.214 18.6317ZM63.1847 18.2722L64.7707 15.1782L62.9909 14.2658L61.4049 17.3598L63.1847 18.2722ZM63.1737 15.4291C63.4082 15.6636 63.7606 15.9188 64.1665 16.1836L65.2591 14.5084C64.8677 14.2532 64.6654 14.0924 64.5879 14.0149L63.1737 15.4291ZM64.1929 16.2002C64.6351 16.4694 65.1581 16.7391 65.755 17.0104L66.5826 15.1896C66.0355 14.9409 65.5878 14.7079 65.2328 14.4918L64.1929 16.2002ZM65.7783 17.0206C66.4016 17.285 67.0737 17.5084 67.7924 17.6927L68.2892 15.7553C67.6559 15.593 67.08 15.4003 66.5594 15.1794L65.7783 17.0206ZM67.7924 17.6927C68.5491 17.8867 69.3172 17.984 70.0948 17.984V15.984C69.4858 15.984 68.8846 15.908 68.2892 15.7553L67.7924 17.6927ZM70.0948 17.984C71.1574 17.984 72.1261 17.8197 72.8571 17.3516C73.6641 16.8349 74.0588 16.0276 74.0588 15.086H72.0588C72.0588 15.4098 71.9595 15.5515 71.7785 15.6674C71.5215 15.832 71.0082 15.984 70.0948 15.984V17.984ZM74.0588 15.086C74.0588 14.2638 73.7365 13.5427 73.0977 13.015L71.8239 14.557C71.9825 14.6879 72.0588 14.8335 72.0588 15.086H74.0588ZM73.0977 13.015C72.5626 12.573 71.8654 12.246 71.0665 11.9987L70.4751 13.9093C71.1323 14.1127 71.5617 14.3404 71.8239 14.557L73.0977 13.015ZM71.0731 12.0008C70.3528 11.7724 69.5128 11.5187 68.5541 11.2398L67.9955 13.1602C68.9435 13.436 69.7675 13.6849 70.4686 13.9072L71.0731 12.0008ZM68.5439 11.2369C67.4063 10.919 66.4943 10.5766 65.7919 10.2176L64.8817 11.9984C65.7393 12.4368 66.786 12.8223 68.0057 13.1631L68.5439 11.2369ZM65.8157 10.2301C65.1714 9.87869 64.7403 9.4759 64.4674 9.04183L62.7742 10.1062C63.264 10.8854 63.9769 11.5053 64.858 11.9859L65.8157 10.2301ZM64.4741 9.05255C64.2137 8.62647 64.0488 8.03204 64.0488 7.208H62.0488C62.0488 8.29062 62.2652 9.27353 62.7675 10.0954L64.4741 9.05255ZM64.0488 7.208C64.0488 6.1002 64.3051 5.25366 64.7544 4.60608L63.1112 3.46592C62.3819 4.51701 62.0488 5.78513 62.0488 7.208H64.0488ZM64.752 4.60946C65.2456 3.90437 65.908 3.3707 66.767 3.00675L65.9867 1.16525C64.8003 1.66796 63.8334 2.43429 63.1136 3.46254L64.752 4.60946ZM66.7801 3.00109C67.6616 2.61262 68.6574 2.41 69.7828 2.41V0.409999C68.4122 0.409999 67.1374 0.658048 65.9736 1.17091L66.7801 3.00109ZM69.7828 2.41C70.9555 2.41 72.0316 2.59979 73.0197 2.97033L73.7219 1.09767C72.4914 0.636211 71.1754 0.409999 69.7828 0.409999V2.41ZM73.0197 2.97033C74.072 3.36495 74.9524 3.80832 75.672 4.29327L76.7897 2.63473C75.9146 2.04501 74.8883 1.53505 73.7219 1.09767L73.0197 2.97033ZM75.3526 2.9857L73.7666 5.8977L75.523 6.8543L77.109 3.9423L75.3526 2.9857ZM87.8934 19.298L88.2996 20.2118L89.0708 19.869L88.8625 19.0512L87.8934 19.298ZM86.1514 19.922L85.8641 18.9641L85.8574 18.9662L86.1514 19.922ZM80.9774 18.83L80.1278 19.3574L80.1385 19.3747L80.15 19.3915L80.9774 18.83ZM80.5094 9.054H81.5094V8.054H80.5094V9.054ZM78.7154 9.054H77.7154V10.054H78.7154V9.054ZM78.7154 6.376V5.376H77.7154V6.376H78.7154ZM80.5094 6.376V7.376H81.5094V6.376H80.5094ZM80.5094 1.956V0.956H79.5094V1.956H80.5094ZM83.9934 1.956H84.9934V0.956H83.9934V1.956ZM83.9934 6.376H82.9934V7.376H83.9934V6.376ZM86.8534 6.376H87.8534V5.376H86.8534V6.376ZM86.8534 9.054V10.054H87.8534V9.054H86.8534ZM83.9934 9.054V8.054H82.9934V9.054H83.9934ZM84.3574 16.724L83.7066 17.4833L83.7195 17.4943L83.7327 17.5049L84.3574 16.724ZM86.3594 16.854L86.0291 15.9101L86.3594 16.854ZM87.1914 16.542L88.1605 16.2952L87.8749 15.1739L86.8068 15.6189L87.1914 16.542ZM87.4873 18.3842C87.0701 18.5696 86.532 18.7638 85.8641 18.9642L86.4388 20.8798C87.1575 20.6642 87.7808 20.4424 88.2996 20.2118L87.4873 18.3842ZM85.8574 18.9662C85.2794 19.1441 84.6767 19.234 84.0454 19.234V21.234C84.8702 21.234 85.6715 21.1159 86.4455 20.8778L85.8574 18.9662ZM84.0454 19.234C83.5235 19.234 83.0672 19.1428 82.6642 18.9738L81.8907 20.8182C82.5623 21.0998 83.2847 21.234 84.0454 21.234V19.234ZM82.6642 18.9738C82.3069 18.824 82.0262 18.5946 81.8049 18.2685L80.15 19.3915C80.5874 20.0361 81.1734 20.5174 81.8907 20.8182L82.6642 18.9738ZM81.8271 18.3026C81.6419 18.0043 81.5094 17.5538 81.5094 16.88H79.5094C79.5094 17.8009 79.689 18.6503 80.1278 19.3574L81.8271 18.3026ZM81.5094 16.88V9.054H79.5094V16.88H81.5094ZM80.5094 8.054H78.7154V10.054H80.5094V8.054ZM79.7154 9.054V6.376H77.7154V9.054H79.7154ZM78.7154 7.376H80.5094V5.376H78.7154V7.376ZM81.5094 6.376V1.956H79.5094V6.376H81.5094ZM80.5094 2.956H83.9934V0.956H80.5094V2.956ZM82.9934 1.956V6.376H84.9934V1.956H82.9934ZM83.9934 7.376H86.8534V5.376H83.9934V7.376ZM85.8534 6.376V9.054H87.8534V6.376H85.8534ZM86.8534 8.054H83.9934V10.054H86.8534V8.054ZM82.9934 9.054V15.71H84.9934V9.054H82.9934ZM82.9934 15.71C82.9934 16.3313 83.1552 17.0106 83.7066 17.4833L85.0082 15.9647C85.0343 15.9871 85.0351 16.0029 85.0256 15.9766C85.0137 15.9433 84.9934 15.8619 84.9934 15.71H82.9934ZM83.7327 17.5049C84.1869 17.8682 84.7249 18.036 85.2934 18.036V16.036C85.134 16.036 85.048 15.9958 84.9821 15.9431L83.7327 17.5049ZM85.2934 18.036C85.771 18.036 86.2379 17.956 86.6898 17.7979L86.0291 15.9101C85.7876 15.9947 85.5439 16.036 85.2934 16.036V18.036ZM86.6898 17.7979C87.0449 17.6736 87.3426 17.5623 87.5761 17.4651L86.8068 15.6189C86.6243 15.695 86.3673 15.7918 86.0291 15.9101L86.6898 17.7979ZM86.2224 16.7888L86.9244 19.5448L88.8625 19.0512L88.1605 16.2952L86.2224 16.7888ZM90.358 6.376V5.376H89.358V6.376H90.358ZM93.842 6.376H94.842V5.376H93.842V6.376ZM98.054 16.698L98.5924 17.5407L98.5981 17.537L98.054 16.698ZM99.614 14.826L100.516 15.2581L100.614 15.0532V14.826H99.614ZM99.614 6.376V5.376H98.614V6.376H99.614ZM103.098 6.376H104.098V5.376H103.098V6.376ZM103.28 16.906L102.491 17.5199L102.508 17.5428L102.527 17.5645L103.28 16.906ZM103.93 17.166H104.93V16.271L104.04 16.1721L103.93 17.166ZM103.93 20L104.126 20.9806L104.93 20.8198V20H103.93ZM103.046 20.13L102.975 19.1325L102.969 19.1329L103.046 20.13ZM100.888 19.74L100.277 20.5313L100.296 20.5466L100.317 20.5609L100.888 19.74ZM100.212 18.544L99.2145 18.6152L99.2168 18.6481L99.2213 18.6806L100.212 18.544ZM100.134 17.452L101.131 17.3808L100.919 14.4027L99.2948 16.9081L100.134 17.452ZM97.794 19.558L98.2346 20.4557L97.794 19.558ZM91.45 18.908L90.6662 19.5291L90.672 19.5363L91.45 18.908ZM91.358 14.904V6.376H89.358V14.904H91.358ZM90.358 7.376H93.842V5.376H90.358V7.376ZM92.842 6.376V14.15H94.842V6.376H92.842ZM92.842 14.15C92.842 15.2885 93.0412 16.3223 93.5955 17.0933C94.1937 17.9252 95.0897 18.296 96.104 18.296V16.296C95.6102 16.296 95.3752 16.1424 95.2194 15.9257C95.0197 15.648 94.842 15.1089 94.842 14.15H92.842ZM96.104 18.296C96.9888 18.296 97.8235 18.0319 98.5923 17.5407L97.5156 15.8553C97.0364 16.1614 96.5711 16.296 96.104 16.296V18.296ZM98.5981 17.537C99.423 17.0019 100.054 16.2216 100.516 15.2581L98.7121 14.3939C98.3765 15.0944 97.9675 15.5621 97.5098 15.859L98.5981 17.537ZM100.614 14.826V6.376H98.614V14.826H100.614ZM99.614 7.376H103.098V5.376H99.614V7.376ZM102.098 6.376V16.1H104.098V6.376H102.098ZM102.098 16.1C102.098 16.527 102.154 17.087 102.491 17.5199L104.069 16.2921C104.127 16.3663 104.129 16.4111 104.119 16.3672C104.11 16.3268 104.098 16.2426 104.098 16.1H102.098ZM102.527 17.5645C102.896 17.9856 103.421 18.1156 103.82 18.1599L104.04 16.1721C103.995 16.167 103.961 16.161 103.938 16.1556C103.914 16.1502 103.904 16.1462 103.905 16.1465C103.905 16.1466 103.965 16.1706 104.033 16.2475L102.527 17.5645ZM102.93 17.166V20H104.93V17.166H102.93ZM103.734 19.0194C103.412 19.0838 103.161 19.1192 102.975 19.1325L103.117 21.1275C103.416 21.1061 103.755 21.0548 104.126 20.9806L103.734 19.0194ZM102.969 19.1329C102.765 19.1487 102.583 19.156 102.422 19.156V21.156C102.642 21.156 102.876 21.146 103.123 21.1271L102.969 19.1329ZM102.422 19.156C101.944 19.156 101.648 19.0506 101.459 18.9191L100.317 20.5609C100.925 20.9841 101.652 21.156 102.422 21.156V19.156ZM101.499 18.9487C101.337 18.8233 101.238 18.6658 101.203 18.4074L99.2213 18.6806C99.3244 19.4275 99.6761 20.0673 100.277 20.5313L101.499 18.9487ZM101.209 18.4728L101.131 17.3808L99.1365 17.5232L99.2145 18.6152L101.209 18.4728ZM99.2948 16.9081C98.7814 17.7003 98.1359 18.2761 97.3533 18.6603L98.2346 20.4557C99.3587 19.9039 100.273 19.0757 100.973 17.9959L99.2948 16.9081ZM97.3533 18.6603C96.5475 19.0559 95.6512 19.26 94.648 19.26V21.26C95.9327 21.26 97.1337 20.9961 98.2346 20.4557L97.3533 18.6603ZM94.648 19.26C93.4753 19.26 92.7256 18.8959 92.2279 18.2797L90.672 19.5363C91.6303 20.7227 93.0126 21.26 94.648 21.26V19.26ZM92.2337 18.2869C91.7001 17.6135 91.358 16.5358 91.358 14.904H89.358C89.358 16.7735 89.7438 18.3651 90.6662 19.5291L92.2337 18.2869ZM107.288 9.626L108.188 10.0616L108.188 10.0616L107.288 9.626ZM109.446 7.078L110.008 7.90522L110.008 7.90522L109.446 7.078ZM115.296 6.896L114.763 7.74193L114.774 7.74865L114.784 7.7551L115.296 6.896ZM117.194 8.768L116.333 9.27673L118.194 12.426V8.768H117.194ZM117.194 1.02V0.0199995H116.194V1.02H117.194ZM120.678 1.02H121.678V0.0199995H120.678V1.02ZM120.86 16.906L120.071 17.5199L120.089 17.5428L120.108 17.5645L120.86 16.906ZM121.484 17.166H122.484V16.2768L121.601 16.1728L121.484 17.166ZM121.484 20L121.675 20.9816L122.484 20.8243V20H121.484ZM118.442 19.714L117.826 20.5015L117.834 20.5078L117.842 20.514L118.442 19.714ZM117.766 18.492L116.768 18.5525L116.769 18.5737L116.772 18.5949L117.766 18.492ZM117.714 17.634L118.712 17.5735L118.515 14.3175L116.854 17.1247L117.714 17.634ZM115.66 19.584L115.199 18.6968L115.192 18.7007L115.66 19.584ZM109.628 19.324L109.077 20.1584L109.087 20.1652L109.628 19.324ZM107.34 16.776L106.452 17.2347L106.455 17.2405L107.34 16.776ZM117.194 15.008L118.133 15.3537L118.194 15.1864V15.008H117.194ZM117.194 11.758H118.194V11.5818L118.134 11.4163L117.194 11.758ZM115.764 9.86L115.168 10.6625L115.168 10.6625L115.764 9.86ZM111.812 9.704L112.391 10.5195L112.4 10.5134L112.408 10.5071L111.812 9.704ZM110.564 11.238L111.469 11.665L111.473 11.6555L110.564 11.238ZM110.616 15.32L109.732 15.7868L109.737 15.7971L110.616 15.32ZM111.942 16.776L111.394 17.612L111.409 17.6219L111.424 17.6312L111.942 16.776ZM115.842 16.646L115.293 15.8105L115.282 15.8174L115.842 16.646ZM107.508 13.188C107.508 12.0252 107.74 10.9887 108.188 10.0616L106.388 9.19044C105.797 10.4127 105.508 11.7508 105.508 13.188H107.508ZM108.188 10.0616C108.638 9.13262 109.245 8.42323 110.008 7.90522L108.884 6.25078C107.81 6.98077 106.979 7.97005 106.388 9.19044L108.188 10.0616ZM110.008 7.90522C110.751 7.40087 111.601 7.142 112.592 7.142V5.142C111.226 5.142 109.979 5.50713 108.884 6.25078L110.008 7.90522ZM112.592 7.142C113.422 7.142 114.136 7.3467 114.763 7.74193L115.83 6.05007C114.862 5.43997 113.773 5.142 112.592 5.142V7.142ZM114.784 7.7551C115.466 8.16094 115.974 8.66836 116.333 9.27673L118.055 8.25927C117.513 7.34231 116.756 6.60172 115.808 6.0369L114.784 7.7551ZM118.194 8.768V1.02H116.194V8.768H118.194ZM117.194 2.02H120.678V0.0199995H117.194V2.02ZM119.678 1.02V16.1H121.678V1.02H119.678ZM119.678 16.1C119.678 16.527 119.734 17.087 120.071 17.5199L121.65 16.2921C121.707 16.3663 121.709 16.4111 121.699 16.3672C121.69 16.3268 121.678 16.2426 121.678 16.1H119.678ZM120.108 17.5645C120.467 17.9747 120.969 18.1122 121.367 18.1592L121.601 16.1728C121.561 16.1682 121.533 16.1627 121.514 16.1582C121.495 16.1536 121.489 16.1506 121.492 16.1519C121.498 16.1546 121.553 16.1788 121.613 16.2475L120.108 17.5645ZM120.484 17.166V20H122.484V17.166H120.484ZM121.293 19.0184C120.693 19.1351 120.272 19.182 120.002 19.182V21.182C120.461 21.182 121.027 21.1076 121.675 20.9816L121.293 19.0184ZM120.002 19.182C119.55 19.182 119.253 19.0718 119.042 18.914L117.842 20.514C118.464 20.9802 119.206 21.182 120.002 21.182V19.182ZM119.059 18.9265C118.873 18.7815 118.785 18.6211 118.761 18.3891L116.772 18.5949C116.852 19.3682 117.214 20.0225 117.826 20.5015L119.059 18.9265ZM118.764 18.4315L118.712 17.5735L116.716 17.6945L116.768 18.5525L118.764 18.4315ZM116.854 17.1247C116.445 17.815 115.898 18.3333 115.199 18.6968L116.122 20.4712C117.156 19.9334 117.978 19.1517 118.575 18.1433L116.854 17.1247ZM115.192 18.7007C114.482 19.0769 113.75 19.26 112.982 19.26V21.26C114.086 21.26 115.139 20.9924 116.129 20.4673L115.192 18.7007ZM112.982 19.26C111.889 19.26 110.963 18.9932 110.169 18.4828L109.087 20.1652C110.235 20.9028 111.544 21.26 112.982 21.26V19.26ZM110.179 18.4897C109.353 17.9439 108.704 17.2234 108.226 16.3115L106.455 17.2405C107.086 18.4433 107.962 19.4214 109.077 20.1583L110.179 18.4897ZM108.229 16.3174C107.754 15.3969 107.508 14.3603 107.508 13.188H105.508C105.508 14.6504 105.817 16.0058 106.452 17.2346L108.229 16.3174ZM118.194 15.008V11.758H116.194V15.008H118.194ZM118.134 11.4163C117.787 10.4625 117.188 9.67222 116.361 9.05754L115.168 10.6625C115.693 11.0531 116.047 11.5282 116.254 12.0997L118.134 11.4163ZM116.361 9.05754C115.545 8.45112 114.648 8.106 113.684 8.106V10.106C114.142 10.106 114.631 10.2635 115.168 10.6625L116.361 9.05754ZM113.684 8.106C112.773 8.106 111.937 8.36616 111.216 8.9009L112.408 10.5071C112.762 10.2445 113.174 10.106 113.684 10.106V8.106ZM111.233 8.88849C110.543 9.3785 110.018 10.0316 109.656 10.8205L111.473 11.6555C111.7 11.1617 112.007 10.7922 112.391 10.5195L111.233 8.88849ZM109.66 10.811C109.299 11.5758 109.122 12.3986 109.122 13.266H111.122C111.122 12.6774 111.24 12.1482 111.468 11.665L109.66 10.811ZM109.122 13.266C109.122 14.1646 109.322 15.0108 109.732 15.7868L111.501 14.8532C111.251 14.3812 111.122 13.8581 111.122 13.266H109.122ZM109.737 15.7971C110.142 16.5427 110.695 17.1538 111.394 17.612L112.491 15.94C112.08 15.6702 111.749 15.3106 111.495 14.8429L109.737 15.7971ZM111.424 17.6312C112.166 18.0809 112.998 18.296 113.892 18.296V16.296C113.33 16.296 112.863 16.1644 112.461 15.9208L111.424 17.6312ZM113.892 18.296C114.783 18.296 115.625 17.9996 116.402 17.4746L115.282 15.8174C114.777 16.159 114.318 16.296 113.892 16.296V18.296ZM116.392 17.4814C117.206 16.9457 117.807 16.2374 118.133 15.3537L116.256 14.6623C116.096 15.096 115.796 15.4796 115.293 15.8106L116.392 17.4814ZM124.878 4.478H123.878V5.478H124.878V4.478ZM124.878 1.02V0.0199995H123.878V1.02H124.878ZM128.362 1.02H129.362V0.0199995H128.362V1.02ZM128.362 4.478V5.478H129.362V4.478H128.362ZM124.878 20H123.878V21H124.878V20ZM124.878 6.376V5.376H123.878V6.376H124.878ZM128.362 6.376H129.362V5.376H128.362V6.376ZM128.362 20V21H129.362V20H128.362ZM125.878 4.478V1.02H123.878V4.478H125.878ZM124.878 2.02H128.362V0.0199995H124.878V2.02ZM127.362 1.02V4.478H129.362V1.02H127.362ZM128.362 3.478H124.878V5.478H128.362V3.478ZM125.878 20V6.376H123.878V20H125.878ZM124.878 7.376H128.362V5.376H124.878V7.376ZM127.362 6.376V20H129.362V6.376H127.362ZM128.362 19H124.878V21H128.362V19ZM134.729 19.298L134.2 20.1468L134.208 20.1518L134.217 20.1567L134.729 19.298ZM132.285 16.698L131.402 17.1678L132.285 16.698ZM132.285 9.704L131.408 9.22313L131.402 9.23415L132.285 9.704ZM134.755 7.13L135.274 7.98502L135.278 7.9826L134.755 7.13ZM142.373 7.13L141.844 7.97878L141.852 7.98382L141.861 7.98871L142.373 7.13ZM144.843 16.698L145.726 17.1678L145.726 17.1678L144.843 16.698ZM142.373 19.298L142.892 20.153L142.896 20.1506L142.373 19.298ZM135.483 15.346L134.589 15.7932L134.594 15.8033L135.483 15.346ZM136.757 16.776L137.299 15.9357L137.299 15.9357L136.757 16.776ZM140.371 16.776L140.913 17.6163L140.923 17.6102L140.932 17.6039L140.371 16.776ZM141.645 15.32L140.761 14.8532L140.756 14.8627L141.645 15.32ZM141.645 11.108L140.751 11.5552L140.758 11.5703L140.766 11.5851L141.645 11.108ZM140.371 9.652L139.81 10.4799L139.819 10.4862L139.829 10.4923L140.371 9.652ZM136.757 9.652L137.299 10.4923L137.309 10.4862L137.318 10.4799L136.757 9.652ZM135.483 11.108L136.372 11.5654L136.377 11.5552L135.483 11.108ZM138.577 19.26C137.232 19.26 136.134 18.9719 135.241 18.4393L134.217 20.1567C135.473 20.9068 136.941 21.26 138.577 21.26V19.26ZM135.258 18.4492C134.346 17.8813 133.655 17.1438 133.168 16.2282L131.402 17.1678C132.059 18.4015 132.997 19.3974 134.2 20.1468L135.258 18.4492ZM133.168 16.2282C132.675 15.3019 132.427 14.3024 132.427 13.214H130.427C130.427 14.6216 130.751 15.9448 131.402 17.1678L133.168 16.2282ZM132.427 13.214C132.427 12.1058 132.676 11.0981 133.168 10.1738L131.402 9.23415C130.75 10.4592 130.427 11.7915 130.427 13.214H132.427ZM133.162 10.1848C133.666 9.26563 134.365 8.5361 135.274 7.98501L134.236 6.27499C133.03 7.00656 132.083 7.99303 131.408 9.22317L133.162 10.1848ZM135.278 7.9826C136.17 7.4356 137.256 7.142 138.577 7.142V5.142C136.951 5.142 135.489 5.50707 134.232 6.2774L135.278 7.9826ZM138.577 7.142C139.898 7.142 140.973 7.43576 141.844 7.97878L142.902 6.28122C141.659 5.5069 140.203 5.142 138.577 5.142V7.142ZM141.861 7.98871C142.783 8.53935 143.476 9.2648 143.96 10.1738L145.726 9.23415C145.066 7.99386 144.112 7.00331 142.885 6.27129L141.861 7.98871ZM143.96 10.1738C144.452 11.0981 144.701 12.1058 144.701 13.214H146.701C146.701 11.7915 146.378 10.4592 145.726 9.23415L143.96 10.1738ZM144.701 13.214C144.701 14.3024 144.453 15.3019 143.96 16.2282L145.726 17.1678C146.377 15.9448 146.701 14.6216 146.701 13.214H144.701ZM143.96 16.2282C143.475 17.1397 142.779 17.8765 141.85 18.4454L142.896 20.1506C144.117 19.4022 145.067 18.4057 145.726 17.1678L143.96 16.2282ZM141.854 18.443C140.981 18.9727 139.903 19.26 138.577 19.26V21.26C140.198 21.26 141.65 20.9059 142.892 20.153L141.854 18.443ZM134.015 13.214C134.015 14.1443 134.198 15.0117 134.589 15.7932L136.377 14.8988C136.144 14.4323 136.015 13.8784 136.015 13.214H134.015ZM134.594 15.8033C134.98 16.5551 135.52 17.1682 136.215 17.6163L137.299 15.9357C136.919 15.6904 136.61 15.3502 136.372 14.8887L134.594 15.8033ZM136.215 17.6163C136.923 18.0733 137.72 18.296 138.577 18.296V16.296C138.082 16.296 137.665 16.172 137.299 15.9357L136.215 17.6163ZM138.577 18.296C139.422 18.296 140.209 18.0705 140.913 17.6163L139.829 15.9357C139.458 16.1749 139.049 16.296 138.577 16.296V18.296ZM140.932 17.6039C141.615 17.141 142.15 16.5252 142.534 15.7773L140.756 14.8627C140.516 15.3281 140.201 15.683 139.81 15.9481L140.932 17.6039ZM142.529 15.7868C142.944 15.0011 143.139 14.1266 143.139 13.188H141.139C141.139 13.8441 141.005 14.3909 140.761 14.8532L142.529 15.7868ZM143.139 13.188C143.139 12.2633 142.943 11.4022 142.524 10.6309L140.766 11.5851C141.006 12.0271 141.139 12.5527 141.139 13.188H143.139ZM142.539 10.6608C142.155 9.89161 141.615 9.26421 140.913 8.8117L139.829 10.4923C140.202 10.7331 140.511 11.0764 140.751 11.5552L142.539 10.6608ZM140.932 8.82408C140.226 8.34618 139.432 8.106 138.577 8.106V10.106C139.039 10.106 139.441 10.2298 139.81 10.4799L140.932 8.82408ZM138.577 8.106C137.71 8.106 136.906 8.3431 136.196 8.82408L137.318 10.4799C137.682 10.2329 138.092 10.106 138.577 10.106V8.106ZM136.215 8.8117C135.513 9.26421 134.973 9.89161 134.589 10.6608L136.377 11.5552C136.617 11.0764 136.926 10.7331 137.299 10.4923L136.215 8.8117ZM134.594 10.6507C134.198 11.4209 134.015 12.2844 134.015 13.214H136.015C136.015 12.5489 136.144 12.0085 136.372 11.5653L134.594 10.6507Z" fill="black"/>
<path d="M10.242 1.592V0.592H8.79952L9.30555 1.94281L10.242 1.592ZM13.57 1.592L14.5154 1.26613L14.2831 0.592H13.57V1.592ZM15.676 7.702L14.7306 8.02787L15.6702 10.7539L16.6202 8.03146L15.676 7.702ZM17.808 1.592V0.592H17.0978L16.8638 1.26254L17.808 1.592ZM21.11 1.592L22.0455 1.94534L22.5567 0.592H21.11V1.592ZM17.938 9.99L17.0025 9.63666L16.8654 9.99956L17.009 10.36L17.938 9.99ZM20.278 15.866L19.349 16.236L20.319 18.6717L21.2174 16.2087L20.278 15.866ZM25.504 1.54V0.539999H24.8043L24.5646 1.1973L25.504 1.54ZM29.404 1.54L30.3325 1.91139L30.881 0.539999H29.404V1.54ZM22.02 20V21H22.697L22.9485 20.3714L22.02 20ZM18.926 20L18.0038 20.3868L18.2611 21H18.926V20ZM15.676 12.252L16.5982 11.8652L15.6723 9.65793L14.7527 11.8678L15.676 12.252ZM12.452 20V21H13.119L13.3753 20.3842L12.452 20ZM9.358 20L8.42907 20.3703L8.68008 21H9.358V20ZM2 1.54V0.539999H0.524898L1.07107 1.91026L2 1.54ZM5.848 1.54L6.78689 1.19579L6.54648 0.539999H5.848V1.54ZM11.1 15.866L10.1611 16.2102L11.0718 18.6944L12.0319 16.2288L11.1 15.866ZM13.388 9.99L14.3199 10.3528L14.4584 9.9969L14.3244 9.63919L13.388 9.99ZM10.242 2.592H13.57V0.592H10.242V2.592ZM12.6246 1.91787L14.7306 8.02787L16.6214 7.37613L14.5154 1.26613L12.6246 1.91787ZM16.6202 8.03146L18.7522 1.92146L16.8638 1.26254L14.7318 7.37254L16.6202 8.03146ZM17.808 2.592H21.11V0.592H17.808V2.592ZM20.1745 1.23866L17.0025 9.63666L18.8735 10.3433L22.0455 1.94534L20.1745 1.23866ZM17.009 10.36L19.349 16.236L21.207 15.496L18.867 9.62003L17.009 10.36ZM21.2174 16.2087L26.4434 1.8827L24.5646 1.1973L19.3386 15.5233L21.2174 16.2087ZM25.504 2.54H29.404V0.539999H25.504V2.54ZM28.4755 1.16861L21.0915 19.6286L22.9485 20.3714L30.3325 1.91139L28.4755 1.16861ZM22.02 19H18.926V21H22.02V19ZM19.8482 19.6132L16.5982 11.8652L14.7538 12.6388L18.0038 20.3868L19.8482 19.6132ZM14.7527 11.8678L11.5287 19.6158L13.3753 20.3842L16.5993 12.6362L14.7527 11.8678ZM12.452 19H9.358V21H12.452V19ZM10.2869 19.6297L2.92893 1.16974L1.07107 1.91026L8.42907 20.3703L10.2869 19.6297ZM2 2.54H5.848V0.539999H2V2.54ZM4.90911 1.8842L10.1611 16.2102L12.0389 15.5218L6.78689 1.19579L4.90911 1.8842ZM12.0319 16.2288L14.3199 10.3528L12.4562 9.62716L10.1682 15.5032L12.0319 16.2288ZM14.3244 9.63919L11.1784 1.24119L9.30555 1.94281L12.4516 10.3408L14.3244 9.63919ZM32.405 19.298L31.8863 20.153L31.8925 20.1567L32.405 19.298ZM29.935 16.75L29.0581 17.2308L29.0615 17.2369L29.935 16.75ZM29.909 9.73L29.0289 9.25506L29.0262 9.26015L29.909 9.73ZM32.405 7.13L32.9175 7.98877L32.9275 7.9826L32.405 7.13ZM40.075 7.13L39.5462 7.97884L39.5564 7.98501L40.075 7.13ZM42.493 9.704L41.6043 10.1626L41.6088 10.1713L41.6134 10.1798L42.493 9.704ZM43.273 14.306V15.306H44.1275L44.2607 14.462L43.273 14.306ZM32.743 14.306V13.306H31.6576L31.7463 14.3877L32.743 14.306ZM33.913 16.802L33.2544 17.5546L33.2637 17.5626L33.913 16.802ZM38.307 17.218L38.7841 18.0969L38.7926 18.0922L38.307 17.218ZM39.581 15.866L39.849 14.9026L38.9901 14.6636L38.6545 15.4896L39.581 15.866ZM42.571 16.698L43.4713 17.1332L43.9922 16.0555L42.839 15.7346L42.571 16.698ZM40.153 19.272L40.6635 20.1319L40.6733 20.1259L40.153 19.272ZM32.665 12.096L31.6685 12.0116L31.5766 13.096H32.665V12.096ZM39.789 12.096V13.096H40.8958L40.7838 11.9948L39.789 12.096ZM38.619 9.626L37.9214 10.3425L37.9309 10.3518L37.9407 10.3608L38.619 9.626ZM33.783 9.626L34.4707 10.352L34.4712 10.3515L33.783 9.626ZM36.227 19.26C34.9018 19.26 33.8116 18.9729 32.9174 18.4393L31.8925 20.1567C33.1477 20.9058 34.6055 21.26 36.227 21.26V19.26ZM32.9236 18.443C32.0111 17.8895 31.3115 17.1657 30.8085 16.2631L29.0615 17.2369C29.7371 18.449 30.6842 19.4238 31.8864 20.153L32.9236 18.443ZM30.8118 16.2692C30.3048 15.3447 30.051 14.3491 30.051 13.266H28.051C28.051 14.6789 28.3865 16.006 29.0582 17.2308L30.8118 16.2692ZM30.051 13.266C30.051 12.1381 30.3009 11.1221 30.7917 10.1998L29.0262 9.26015C28.3731 10.4873 28.051 11.8285 28.051 13.266H30.051ZM30.789 10.2049C31.2919 9.27309 31.9963 8.53844 32.9174 7.98871L31.8925 6.27129C30.6643 7.00422 29.7047 8.00291 29.0289 9.25507L30.789 10.2049ZM32.9275 7.9826C33.8182 7.43669 34.9127 7.142 36.253 7.142V5.142C34.6119 5.142 33.141 5.50598 31.8824 6.2774L32.9275 7.9826ZM36.253 7.142C37.5938 7.142 38.6763 7.43687 39.5462 7.97878L40.6037 6.28122C39.359 5.50579 37.8935 5.142 36.253 5.142V7.142ZM39.5564 7.98501C40.4599 8.53309 41.1361 9.2555 41.6043 10.1626L43.3816 9.24536C42.7405 8.00317 41.8047 7.00958 40.5936 6.27499L39.5564 7.98501ZM41.6134 10.1798C42.1044 11.0874 42.351 12.0674 42.351 13.136H44.351C44.351 11.7433 44.0255 10.4352 43.3725 9.22818L41.6134 10.1798ZM42.351 13.136C42.351 13.5513 42.3268 13.8866 42.2852 14.15L44.2607 14.462C44.3231 14.0667 44.351 13.622 44.351 13.136H42.351ZM43.273 13.306H32.743V15.306H43.273V13.306ZM31.7463 14.3877C31.8507 15.6617 32.3357 16.7507 33.2545 17.5546L34.5715 16.0494C34.1036 15.64 33.8085 15.0649 33.7396 14.2243L31.7463 14.3877ZM33.2637 17.5626C34.152 18.3209 35.1959 18.712 36.357 18.712V16.712C35.6808 16.712 35.0953 16.4965 34.5622 16.0414L33.2637 17.5626ZM36.357 18.712C37.2162 18.712 38.0303 18.5061 38.7841 18.0969L37.8299 16.3391C37.3703 16.5886 36.8844 16.712 36.357 16.712V18.712ZM38.7926 18.0922C39.5762 17.6569 40.1805 17.0471 40.5074 16.2424L38.6545 15.4896C38.5308 15.7942 38.2858 16.0858 37.8213 16.3438L38.7926 18.0922ZM39.3129 16.8294L42.3029 17.6614L42.839 15.7346L39.849 14.9026L39.3129 16.8294ZM41.6706 16.2628C41.2618 17.1086 40.5987 17.8293 39.6326 18.4181L40.6733 20.1259C41.9259 19.3627 42.8748 18.3674 43.4713 17.1332L41.6706 16.2628ZM39.6424 18.4121C38.712 18.9646 37.586 19.26 36.227 19.26V21.26C37.884 21.26 39.3753 20.8968 40.6635 20.1319L39.6424 18.4121ZM32.665 13.096H39.789V11.096H32.665V13.096ZM40.7838 11.9948C40.6583 10.76 40.1739 9.70044 39.2973 8.8912L37.9407 10.3608C38.416 10.7996 38.7117 11.3867 38.7941 12.1972L40.7838 11.9948ZM39.3166 8.90953C38.4637 8.07905 37.4042 7.664 36.201 7.664V9.664C36.9044 9.664 37.4569 9.89028 37.9214 10.3425L39.3166 8.90953ZM36.201 7.664C35.0101 7.664 33.9574 8.08205 33.0947 8.90054L34.4712 10.3515C34.9605 9.88728 35.5198 9.664 36.201 9.664V7.664ZM33.0952 8.90005C32.2349 9.71507 31.773 10.7788 31.6685 12.0116L33.6614 12.1804C33.7303 11.3679 34.0137 10.7849 34.4707 10.352L33.0952 8.90005ZM51.2194 19.558L50.7213 20.4251L50.7213 20.4251L51.2194 19.558ZM49.2954 17.634L50.1625 17.1359L48.2954 13.8857V17.634H49.2954ZM49.2954 20V21H50.2954V20H49.2954ZM46.2534 20H45.2534V21H46.2534V20ZM46.2534 1.02V0.0199995H45.2534V1.02H46.2534ZM49.7374 1.02H50.7374V0.0199995H49.7374V1.02ZM49.7374 8.768H48.7374V12.4004L50.5965 9.2798L49.7374 8.768ZM51.6354 6.844L51.1292 5.98154L51.1209 5.98651L51.6354 6.844ZM57.5114 7.13L56.9139 7.93188L56.9227 7.93843L56.9317 7.94479L57.5114 7.13ZM59.6174 9.704L60.5232 9.28031L60.5232 9.28031L59.6174 9.704ZM59.5394 16.802L60.425 17.2665L60.425 17.2665L59.5394 16.802ZM57.2514 19.324L56.7106 18.4828L56.7038 18.4873L57.2514 19.324ZM54.9894 16.75L54.4525 15.9063L54.4408 15.914L54.9894 16.75ZM56.3154 15.294L55.431 14.8272L55.4261 14.8367L56.3154 15.294ZM56.3414 11.212L55.4327 11.6295L55.4396 11.6445L55.447 11.6592L56.3414 11.212ZM55.0934 9.678L54.5147 10.4935L54.5147 10.4935L55.0934 9.678ZM51.1414 9.886L51.7688 10.6648L51.7712 10.6628L51.1414 9.886ZM49.7374 11.758L48.815 11.3719L48.7374 11.5571V11.758H49.7374ZM49.7374 15.008H48.7374V15.1703L48.7887 15.3242L49.7374 15.008ZM51.0634 16.672L50.5138 17.5074L50.5216 17.5125L50.5294 17.5175L51.0634 16.672ZM54.0014 19.26C53.1171 19.26 52.3649 19.0627 51.7175 18.6909L50.7213 20.4251C51.7033 20.9893 52.8058 21.26 54.0014 21.26V19.26ZM51.7175 18.6909C51.0564 18.3111 50.5424 17.7971 50.1625 17.1359L48.4283 18.1321C48.9845 19.1003 49.7532 19.8689 50.7213 20.4251L51.7175 18.6909ZM48.2954 17.634V20H50.2954V17.634H48.2954ZM49.2954 19H46.2534V21H49.2954V19ZM47.2534 20V1.02H45.2534V20H47.2534ZM46.2534 2.02H49.7374V0.0199995H46.2534V2.02ZM48.7374 1.02V8.768H50.7374V1.02H48.7374ZM50.5965 9.2798C51.001 8.60081 51.5177 8.08083 52.1499 7.70149L51.1209 5.98651C50.1932 6.54317 49.4445 7.30585 48.8783 8.25619L50.5965 9.2798ZM52.1416 7.70641C52.7645 7.34081 53.5121 7.142 54.4174 7.142V5.142C53.2081 5.142 52.101 5.41119 51.1292 5.98158L52.1416 7.70641ZM54.4174 7.142C55.3966 7.142 56.2149 7.411 56.9139 7.93188L58.1089 6.32812C57.04 5.53167 55.7956 5.142 54.4174 5.142V7.142ZM56.9317 7.94479C57.6822 8.47884 58.2766 9.19763 58.7116 10.1277L60.5232 9.28031C59.9529 8.06103 59.1433 7.06382 58.0912 6.31521L56.9317 7.94479ZM58.7116 10.1277C59.1473 11.0592 59.3714 12.0917 59.3714 13.24H61.3714C61.3714 11.823 61.0929 10.4981 60.5232 9.28031L58.7116 10.1277ZM59.3714 13.24C59.3714 14.4125 59.1258 15.4378 58.6539 16.3375L60.425 17.2665C61.0623 16.0516 61.3714 14.7021 61.3714 13.24H59.3714ZM58.6539 16.3375C58.1767 17.2471 57.5306 17.9557 56.7107 18.4828L57.7922 20.1652C58.9136 19.4443 59.7928 18.4716 60.425 17.2665L58.6539 16.3375ZM56.7038 18.4873C55.9239 18.9977 55.0334 19.26 54.0014 19.26V21.26C55.3961 21.26 56.6722 20.8983 57.7991 20.1607L56.7038 18.4873ZM53.0394 18.296C53.9548 18.296 54.8008 18.0699 55.5381 17.586L54.4408 15.914C54.0687 16.1581 53.6147 16.296 53.0394 16.296V18.296ZM55.5263 17.5937C56.2489 17.1338 56.8121 16.5147 57.2047 15.7513L55.4261 14.8367C55.1947 15.2866 54.8739 15.6382 54.4525 15.9063L55.5263 17.5937ZM57.1998 15.7608C57.6075 14.9882 57.8094 14.1513 57.8094 13.266H55.8094C55.8094 13.8367 55.682 14.3518 55.431 14.8272L57.1998 15.7608ZM57.8094 13.266C57.8094 12.3763 57.622 11.537 57.2359 10.7648L55.447 11.6592C55.6849 12.135 55.8094 12.665 55.8094 13.266H57.8094ZM57.2501 10.7945C56.8876 10.0056 56.3626 9.3525 55.6722 8.86249L54.5147 10.4935C54.8989 10.7662 55.2059 11.1357 55.4327 11.6295L57.2501 10.7945ZM55.6722 8.86249C54.9566 8.35465 54.1366 8.106 53.2474 8.106V10.106C53.7449 10.106 54.1556 10.2387 54.5147 10.4935L55.6722 8.86249ZM53.2474 8.106C52.2359 8.106 51.3153 8.45759 50.5116 9.10924L51.7712 10.6628C52.2502 10.2744 52.7336 10.106 53.2474 10.106V8.106ZM50.5141 9.10725C49.7595 9.71513 49.1906 10.4745 48.815 11.3719L50.6599 12.1441C50.9082 11.5508 51.2754 11.0622 51.7688 10.6648L50.5141 9.10725ZM48.7374 11.758V15.008H50.7374V11.758H48.7374ZM48.7887 15.3242C49.0927 16.236 49.6888 16.9646 50.5138 17.5074L51.613 15.8366C51.1207 15.5127 50.8328 15.132 50.6861 14.6918L48.7887 15.3242ZM50.5294 17.5175C51.3183 18.0157 52.1595 18.296 53.0394 18.296V16.296C52.602 16.296 52.1259 16.1603 51.5974 15.8265L50.5294 17.5175ZM74.6448 6.376L73.9015 7.04496L74.847 8.0955L75.523 6.8543L74.6448 6.376ZM73.6568 5.7L73.1511 6.5627L73.1623 6.56929L73.1737 6.57558L73.6568 5.7ZM71.8368 4.92L71.5065 5.86386L71.5204 5.86875L71.5346 5.87323L71.8368 4.92ZM68.6128 8.586L68.2966 9.53468L68.2966 9.53468L68.6128 8.586ZM70.9528 9.262L70.7019 10.23L70.7038 10.2305L70.9528 9.262ZM74.0988 10.354L73.673 11.2588L73.6798 11.262L74.0988 10.354ZM76.1528 12.018L75.324 12.5775L75.3321 12.5895L75.3405 12.6012L76.1528 12.018ZM75.9188 17.92L75.1331 17.3014L75.1313 17.3037L75.9188 17.92ZM73.4228 19.662L73.0925 18.7181L73.0925 18.7181L73.4228 19.662ZM65.9088 19.584L65.6036 20.5363L65.6108 20.5386L65.6181 20.5408L65.9088 19.584ZM62.2948 17.816L61.4049 17.3598L61.0087 18.1329L61.7187 18.6333L62.2948 17.816ZM63.8808 14.722L64.5879 14.0149L63.6172 13.0441L62.9909 14.2658L63.8808 14.722ZM64.7128 15.346L64.1665 16.1836L64.1796 16.1921L64.1929 16.2002L64.7128 15.346ZM66.1688 16.1L65.755 17.0104L65.7666 17.0156L65.7783 17.0206L66.1688 16.1ZM68.0408 16.724L67.7924 17.6927L67.7924 17.6927L68.0408 16.724ZM72.4608 13.786L71.8239 14.557L71.8239 14.557L72.4608 13.786ZM70.7708 12.954L70.4686 13.9073L70.4751 13.9093L70.7708 12.954ZM68.2748 12.2L68.5542 11.2398L68.5439 11.2369L68.2748 12.2ZM65.3368 11.108L64.858 11.9859L64.8697 11.9923L64.8817 11.9984L65.3368 11.108ZM63.6208 9.574L62.7675 10.0955L62.7742 10.1062L63.6208 9.574ZM63.9328 4.036L63.1136 3.46253L63.1112 3.46592L63.9328 4.036ZM66.3768 2.086L66.767 3.00675L66.7735 3.00397L66.7801 3.00109L66.3768 2.086ZM76.2308 3.464L77.109 3.9423L77.5442 3.14323L76.7897 2.63473L76.2308 3.464ZM75.3881 5.70703C75.1068 5.39452 74.6385 5.09951 74.1399 4.82442L73.1737 6.57558C73.4081 6.70487 73.5865 6.81361 73.7161 6.90231C73.7805 6.94632 73.8275 6.98185 73.8606 7.00898C73.8948 7.03713 73.9053 7.04913 73.9015 7.04496L75.3881 5.70703ZM74.1625 4.8373C73.5807 4.49623 72.9021 4.2087 72.1391 3.96677L71.5346 5.87323C72.1929 6.08197 72.7276 6.31444 73.1511 6.5627L74.1625 4.8373ZM72.1672 3.97614C71.3661 3.69576 70.535 3.556 69.6788 3.556V5.556C70.3133 5.556 70.9209 5.6589 71.5065 5.86386L72.1672 3.97614ZM69.6788 3.556C68.6119 3.556 67.6327 3.73934 66.8975 4.25983C66.099 4.82517 65.7408 5.67628 65.7408 6.636H67.7408C67.7408 6.20905 67.8723 6.02017 68.0531 5.89217C68.2973 5.71932 68.7871 5.556 69.6788 5.556V3.556ZM65.7408 6.636C65.7408 7.3625 65.9757 8.04289 66.5222 8.55901L67.8954 7.10499C67.8179 7.03178 67.7408 6.91483 67.7408 6.636H65.7408ZM66.5222 8.55901C66.9813 8.99262 67.6009 9.3028 68.2966 9.53468L68.929 7.63732C68.3767 7.4532 68.0603 7.26071 67.8954 7.10499L66.5222 8.55901ZM68.2966 9.53468C68.9495 9.75233 69.753 9.98401 70.7019 10.23L71.2038 8.294C70.2806 8.05466 69.5241 7.83567 68.929 7.63732L68.2966 9.53468ZM70.7038 10.2305C71.8724 10.531 72.8591 10.8758 73.673 11.2588L74.5246 9.44918C73.5706 9.00021 72.4599 8.617 71.2019 8.29351L70.7038 10.2305ZM73.6798 11.262C74.4465 11.6158 74.9758 12.0617 75.324 12.5775L76.9817 11.4585C76.3938 10.5876 75.5538 9.92417 74.5179 9.44604L73.6798 11.262ZM75.3405 12.6012C75.6673 13.0564 75.8808 13.7318 75.8808 14.722H77.8808C77.8808 13.4589 77.609 12.3316 76.9651 11.4348L75.3405 12.6012ZM75.8808 14.722C75.8808 15.8766 75.6018 16.7061 75.1331 17.3014L76.7046 18.5386C77.5185 17.5046 77.8808 16.2021 77.8808 14.722H75.8808ZM75.1313 17.3037C74.6356 17.9371 73.9685 18.4115 73.0925 18.7181L73.7532 20.6059C74.9572 20.1845 75.954 19.4976 76.7063 18.5363L75.1313 17.3037ZM73.0925 18.7181C72.1688 19.0414 71.155 19.208 70.0428 19.208V21.208C71.3573 21.208 72.5968 21.0106 73.7532 20.6059L73.0925 18.7181ZM70.0428 19.208C68.7578 19.208 67.4776 19.0155 66.1995 18.6272L65.6181 20.5408C67.0787 20.9845 68.5545 21.208 70.0428 21.208V19.208ZM66.214 18.6317C64.9493 18.2264 63.8377 17.6801 62.871 16.9987L61.7187 18.6333C62.8666 19.4425 64.1643 20.075 65.6036 20.5363L66.214 18.6317ZM63.1847 18.2722L64.7707 15.1782L62.9909 14.2658L61.4049 17.3598L63.1847 18.2722ZM63.1737 15.4291C63.4082 15.6636 63.7606 15.9188 64.1665 16.1836L65.2591 14.5084C64.8677 14.2532 64.6654 14.0924 64.5879 14.0149L63.1737 15.4291ZM64.1929 16.2002C64.6351 16.4694 65.1581 16.7391 65.755 17.0104L66.5826 15.1896C66.0355 14.9409 65.5878 14.7079 65.2328 14.4918L64.1929 16.2002ZM65.7783 17.0206C66.4016 17.285 67.0737 17.5084 67.7924 17.6927L68.2892 15.7553C67.6559 15.593 67.08 15.4003 66.5594 15.1794L65.7783 17.0206ZM67.7924 17.6927C68.5491 17.8867 69.3172 17.984 70.0948 17.984V15.984C69.4858 15.984 68.8846 15.908 68.2892 15.7553L67.7924 17.6927ZM70.0948 17.984C71.1574 17.984 72.1261 17.8197 72.8571 17.3516C73.6641 16.8349 74.0588 16.0276 74.0588 15.086H72.0588C72.0588 15.4098 71.9595 15.5515 71.7785 15.6674C71.5215 15.832 71.0082 15.984 70.0948 15.984V17.984ZM74.0588 15.086C74.0588 14.2638 73.7365 13.5427 73.0977 13.015L71.8239 14.557C71.9825 14.6879 72.0588 14.8335 72.0588 15.086H74.0588ZM73.0977 13.015C72.5626 12.573 71.8654 12.246 71.0665 11.9987L70.4751 13.9093C71.1323 14.1127 71.5617 14.3404 71.8239 14.557L73.0977 13.015ZM71.0731 12.0008C70.3528 11.7724 69.5128 11.5187 68.5541 11.2398L67.9955 13.1602C68.9435 13.436 69.7675 13.6849 70.4686 13.9072L71.0731 12.0008ZM68.5439 11.2369C67.4063 10.919 66.4943 10.5766 65.7919 10.2176L64.8817 11.9984C65.7393 12.4368 66.786 12.8223 68.0057 13.1631L68.5439 11.2369ZM65.8157 10.2301C65.1714 9.87869 64.7403 9.4759 64.4674 9.04183L62.7742 10.1062C63.264 10.8854 63.9769 11.5053 64.858 11.9859L65.8157 10.2301ZM64.4741 9.05255C64.2137 8.62647 64.0488 8.03204 64.0488 7.208H62.0488C62.0488 8.29062 62.2652 9.27353 62.7675 10.0954L64.4741 9.05255ZM64.0488 7.208C64.0488 6.1002 64.3051 5.25366 64.7544 4.60608L63.1112 3.46592C62.3819 4.51701 62.0488 5.78513 62.0488 7.208H64.0488ZM64.752 4.60946C65.2456 3.90437 65.908 3.3707 66.767 3.00675L65.9867 1.16525C64.8003 1.66796 63.8334 2.43429 63.1136 3.46254L64.752 4.60946ZM66.7801 3.00109C67.6616 2.61262 68.6574 2.41 69.7828 2.41V0.409999C68.4122 0.409999 67.1374 0.658048 65.9736 1.17091L66.7801 3.00109ZM69.7828 2.41C70.9555 2.41 72.0316 2.59979 73.0197 2.97033L73.7219 1.09767C72.4914 0.636211 71.1754 0.409999 69.7828 0.409999V2.41ZM73.0197 2.97033C74.072 3.36495 74.9524 3.80832 75.672 4.29327L76.7897 2.63473C75.9146 2.04501 74.8883 1.53505 73.7219 1.09767L73.0197 2.97033ZM75.3526 2.9857L73.7666 5.8977L75.523 6.8543L77.109 3.9423L75.3526 2.9857ZM87.8934 19.298L88.2996 20.2118L89.0708 19.869L88.8625 19.0512L87.8934 19.298ZM86.1514 19.922L85.8641 18.9641L85.8574 18.9662L86.1514 19.922ZM80.9774 18.83L80.1278 19.3574L80.1385 19.3747L80.15 19.3915L80.9774 18.83ZM80.5094 9.054H81.5094V8.054H80.5094V9.054ZM78.7154 9.054H77.7154V10.054H78.7154V9.054ZM78.7154 6.376V5.376H77.7154V6.376H78.7154ZM80.5094 6.376V7.376H81.5094V6.376H80.5094ZM80.5094 1.956V0.956H79.5094V1.956H80.5094ZM83.9934 1.956H84.9934V0.956H83.9934V1.956ZM83.9934 6.376H82.9934V7.376H83.9934V6.376ZM86.8534 6.376H87.8534V5.376H86.8534V6.376ZM86.8534 9.054V10.054H87.8534V9.054H86.8534ZM83.9934 9.054V8.054H82.9934V9.054H83.9934ZM84.3574 16.724L83.7066 17.4833L83.7195 17.4943L83.7327 17.5049L84.3574 16.724ZM86.3594 16.854L86.0291 15.9101L86.3594 16.854ZM87.1914 16.542L88.1605 16.2952L87.8749 15.1739L86.8068 15.6189L87.1914 16.542ZM87.4873 18.3842C87.0701 18.5696 86.532 18.7638 85.8641 18.9642L86.4388 20.8798C87.1575 20.6642 87.7808 20.4424 88.2996 20.2118L87.4873 18.3842ZM85.8574 18.9662C85.2794 19.1441 84.6767 19.234 84.0454 19.234V21.234C84.8702 21.234 85.6715 21.1159 86.4455 20.8778L85.8574 18.9662ZM84.0454 19.234C83.5235 19.234 83.0672 19.1428 82.6642 18.9738L81.8907 20.8182C82.5623 21.0998 83.2847 21.234 84.0454 21.234V19.234ZM82.6642 18.9738C82.3069 18.824 82.0262 18.5946 81.8049 18.2685L80.15 19.3915C80.5874 20.0361 81.1734 20.5174 81.8907 20.8182L82.6642 18.9738ZM81.8271 18.3026C81.6419 18.0043 81.5094 17.5538 81.5094 16.88H79.5094C79.5094 17.8009 79.689 18.6503 80.1278 19.3574L81.8271 18.3026ZM81.5094 16.88V9.054H79.5094V16.88H81.5094ZM80.5094 8.054H78.7154V10.054H80.5094V8.054ZM79.7154 9.054V6.376H77.7154V9.054H79.7154ZM78.7154 7.376H80.5094V5.376H78.7154V7.376ZM81.5094 6.376V1.956H79.5094V6.376H81.5094ZM80.5094 2.956H83.9934V0.956H80.5094V2.956ZM82.9934 1.956V6.376H84.9934V1.956H82.9934ZM83.9934 7.376H86.8534V5.376H83.9934V7.376ZM85.8534 6.376V9.054H87.8534V6.376H85.8534ZM86.8534 8.054H83.9934V10.054H86.8534V8.054ZM82.9934 9.054V15.71H84.9934V9.054H82.9934ZM82.9934 15.71C82.9934 16.3313 83.1552 17.0106 83.7066 17.4833L85.0082 15.9647C85.0343 15.9871 85.0351 16.0029 85.0256 15.9766C85.0137 15.9433 84.9934 15.8619 84.9934 15.71H82.9934ZM83.7327 17.5049C84.1869 17.8682 84.7249 18.036 85.2934 18.036V16.036C85.134 16.036 85.048 15.9958 84.9821 15.9431L83.7327 17.5049ZM85.2934 18.036C85.771 18.036 86.2379 17.956 86.6898 17.7979L86.0291 15.9101C85.7876 15.9947 85.5439 16.036 85.2934 16.036V18.036ZM86.6898 17.7979C87.0449 17.6736 87.3426 17.5623 87.5761 17.4651L86.8068 15.6189C86.6243 15.695 86.3673 15.7918 86.0291 15.9101L86.6898 17.7979ZM86.2224 16.7888L86.9244 19.5448L88.8625 19.0512L88.1605 16.2952L86.2224 16.7888ZM90.358 6.376V5.376H89.358V6.376H90.358ZM93.842 6.376H94.842V5.376H93.842V6.376ZM98.054 16.698L98.5924 17.5407L98.5981 17.537L98.054 16.698ZM99.614 14.826L100.516 15.2581L100.614 15.0532V14.826H99.614ZM99.614 6.376V5.376H98.614V6.376H99.614ZM103.098 6.376H104.098V5.376H103.098V6.376ZM103.28 16.906L102.491 17.5199L102.508 17.5428L102.527 17.5645L103.28 16.906ZM103.93 17.166H104.93V16.271L104.04 16.1721L103.93 17.166ZM103.93 20L104.126 20.9806L104.93 20.8198V20H103.93ZM103.046 20.13L102.975 19.1325L102.969 19.1329L103.046 20.13ZM100.888 19.74L100.277 20.5313L100.296 20.5466L100.317 20.5609L100.888 19.74ZM100.212 18.544L99.2145 18.6152L99.2168 18.6481L99.2213 18.6806L100.212 18.544ZM100.134 17.452L101.131 17.3808L100.919 14.4027L99.2948 16.9081L100.134 17.452ZM97.794 19.558L98.2346 20.4557L97.794 19.558ZM91.45 18.908L90.6662 19.5291L90.672 19.5363L91.45 18.908ZM91.358 14.904V6.376H89.358V14.904H91.358ZM90.358 7.376H93.842V5.376H90.358V7.376ZM92.842 6.376V14.15H94.842V6.376H92.842ZM92.842 14.15C92.842 15.2885 93.0412 16.3223 93.5955 17.0933C94.1937 17.9252 95.0897 18.296 96.104 18.296V16.296C95.6102 16.296 95.3752 16.1424 95.2194 15.9257C95.0197 15.648 94.842 15.1089 94.842 14.15H92.842ZM96.104 18.296C96.9888 18.296 97.8235 18.0319 98.5923 17.5407L97.5156 15.8553C97.0364 16.1614 96.5711 16.296 96.104 16.296V18.296ZM98.5981 17.537C99.423 17.0019 100.054 16.2216 100.516 15.2581L98.7121 14.3939C98.3765 15.0944 97.9675 15.5621 97.5098 15.859L98.5981 17.537ZM100.614 14.826V6.376H98.614V14.826H100.614ZM99.614 7.376H103.098V5.376H99.614V7.376ZM102.098 6.376V16.1H104.098V6.376H102.098ZM102.098 16.1C102.098 16.527 102.154 17.087 102.491 17.5199L104.069 16.2921C104.127 16.3663 104.129 16.4111 104.119 16.3672C104.11 16.3268 104.098 16.2426 104.098 16.1H102.098ZM102.527 17.5645C102.896 17.9856 103.421 18.1156 103.82 18.1599L104.04 16.1721C103.995 16.167 103.961 16.161 103.938 16.1556C103.914 16.1502 103.904 16.1462 103.905 16.1465C103.905 16.1466 103.965 16.1706 104.033 16.2475L102.527 17.5645ZM102.93 17.166V20H104.93V17.166H102.93ZM103.734 19.0194C103.412 19.0838 103.161 19.1192 102.975 19.1325L103.117 21.1275C103.416 21.1061 103.755 21.0548 104.126 20.9806L103.734 19.0194ZM102.969 19.1329C102.765 19.1487 102.583 19.156 102.422 19.156V21.156C102.642 21.156 102.876 21.146 103.123 21.1271L102.969 19.1329ZM102.422 19.156C101.944 19.156 101.648 19.0506 101.459 18.9191L100.317 20.5609C100.925 20.9841 101.652 21.156 102.422 21.156V19.156ZM101.499 18.9487C101.337 18.8233 101.238 18.6658 101.203 18.4074L99.2213 18.6806C99.3244 19.4275 99.6761 20.0673 100.277 20.5313L101.499 18.9487ZM101.209 18.4728L101.131 17.3808L99.1365 17.5232L99.2145 18.6152L101.209 18.4728ZM99.2948 16.9081C98.7814 17.7003 98.1359 18.2761 97.3533 18.6603L98.2346 20.4557C99.3587 19.9039 100.273 19.0757 100.973 17.9959L99.2948 16.9081ZM97.3533 18.6603C96.5475 19.0559 95.6512 19.26 94.648 19.26V21.26C95.9327 21.26 97.1337 20.9961 98.2346 20.4557L97.3533 18.6603ZM94.648 19.26C93.4753 19.26 92.7256 18.8959 92.2279 18.2797L90.672 19.5363C91.6303 20.7227 93.0126 21.26 94.648 21.26V19.26ZM92.2337 18.2869C91.7001 17.6135 91.358 16.5358 91.358 14.904H89.358C89.358 16.7735 89.7438 18.3651 90.6662 19.5291L92.2337 18.2869ZM107.288 9.626L108.188 10.0616L108.188 10.0616L107.288 9.626ZM109.446 7.078L110.008 7.90522L110.008 7.90522L109.446 7.078ZM115.296 6.896L114.763 7.74193L114.774 7.74865L114.784 7.7551L115.296 6.896ZM117.194 8.768L116.333 9.27673L118.194 12.426V8.768H117.194ZM117.194 1.02V0.0199995H116.194V1.02H117.194ZM120.678 1.02H121.678V0.0199995H120.678V1.02ZM120.86 16.906L120.071 17.5199L120.089 17.5428L120.108 17.5645L120.86 16.906ZM121.484 17.166H122.484V16.2768L121.601 16.1728L121.484 17.166ZM121.484 20L121.675 20.9816L122.484 20.8243V20H121.484ZM118.442 19.714L117.826 20.5015L117.834 20.5078L117.842 20.514L118.442 19.714ZM117.766 18.492L116.768 18.5525L116.769 18.5737L116.772 18.5949L117.766 18.492ZM117.714 17.634L118.712 17.5735L118.515 14.3175L116.854 17.1247L117.714 17.634ZM115.66 19.584L115.199 18.6968L115.192 18.7007L115.66 19.584ZM109.628 19.324L109.077 20.1584L109.087 20.1652L109.628 19.324ZM107.34 16.776L106.452 17.2347L106.455 17.2405L107.34 16.776ZM117.194 15.008L118.133 15.3537L118.194 15.1864V15.008H117.194ZM117.194 11.758H118.194V11.5818L118.134 11.4163L117.194 11.758ZM115.764 9.86L115.168 10.6625L115.168 10.6625L115.764 9.86ZM111.812 9.704L112.391 10.5195L112.4 10.5134L112.408 10.5071L111.812 9.704ZM110.564 11.238L111.469 11.665L111.473 11.6555L110.564 11.238ZM110.616 15.32L109.732 15.7868L109.737 15.7971L110.616 15.32ZM111.942 16.776L111.394 17.612L111.409 17.6219L111.424 17.6312L111.942 16.776ZM115.842 16.646L115.293 15.8105L115.282 15.8174L115.842 16.646ZM107.508 13.188C107.508 12.0252 107.74 10.9887 108.188 10.0616L106.388 9.19044C105.797 10.4127 105.508 11.7508 105.508 13.188H107.508ZM108.188 10.0616C108.638 9.13262 109.245 8.42323 110.008 7.90522L108.884 6.25078C107.81 6.98077 106.979 7.97005 106.388 9.19044L108.188 10.0616ZM110.008 7.90522C110.751 7.40087 111.601 7.142 112.592 7.142V5.142C111.226 5.142 109.979 5.50713 108.884 6.25078L110.008 7.90522ZM112.592 7.142C113.422 7.142 114.136 7.3467 114.763 7.74193L115.83 6.05007C114.862 5.43997 113.773 5.142 112.592 5.142V7.142ZM114.784 7.7551C115.466 8.16094 115.974 8.66836 116.333 9.27673L118.055 8.25927C117.513 7.34231 116.756 6.60172 115.808 6.0369L114.784 7.7551ZM118.194 8.768V1.02H116.194V8.768H118.194ZM117.194 2.02H120.678V0.0199995H117.194V2.02ZM119.678 1.02V16.1H121.678V1.02H119.678ZM119.678 16.1C119.678 16.527 119.734 17.087 120.071 17.5199L121.65 16.2921C121.707 16.3663 121.709 16.4111 121.699 16.3672C121.69 16.3268 121.678 16.2426 121.678 16.1H119.678ZM120.108 17.5645C120.467 17.9747 120.969 18.1122 121.367 18.1592L121.601 16.1728C121.561 16.1682 121.533 16.1627 121.514 16.1582C121.495 16.1536 121.489 16.1506 121.492 16.1519C121.498 16.1546 121.553 16.1788 121.613 16.2475L120.108 17.5645ZM120.484 17.166V20H122.484V17.166H120.484ZM121.293 19.0184C120.693 19.1351 120.272 19.182 120.002 19.182V21.182C120.461 21.182 121.027 21.1076 121.675 20.9816L121.293 19.0184ZM120.002 19.182C119.55 19.182 119.253 19.0718 119.042 18.914L117.842 20.514C118.464 20.9802 119.206 21.182 120.002 21.182V19.182ZM119.059 18.9265C118.873 18.7815 118.785 18.6211 118.761 18.3891L116.772 18.5949C116.852 19.3682 117.214 20.0225 117.826 20.5015L119.059 18.9265ZM118.764 18.4315L118.712 17.5735L116.716 17.6945L116.768 18.5525L118.764 18.4315ZM116.854 17.1247C116.445 17.815 115.898 18.3333 115.199 18.6968L116.122 20.4712C117.156 19.9334 117.978 19.1517 118.575 18.1433L116.854 17.1247ZM115.192 18.7007C114.482 19.0769 113.75 19.26 112.982 19.26V21.26C114.086 21.26 115.139 20.9924 116.129 20.4673L115.192 18.7007ZM112.982 19.26C111.889 19.26 110.963 18.9932 110.169 18.4828L109.087 20.1652C110.235 20.9028 111.544 21.26 112.982 21.26V19.26ZM110.179 18.4897C109.353 17.9439 108.704 17.2234 108.226 16.3115L106.455 17.2405C107.086 18.4433 107.962 19.4214 109.077 20.1583L110.179 18.4897ZM108.229 16.3174C107.754 15.3969 107.508 14.3603 107.508 13.188H105.508C105.508 14.6504 105.817 16.0058 106.452 17.2346L108.229 16.3174ZM118.194 15.008V11.758H116.194V15.008H118.194ZM118.134 11.4163C117.787 10.4625 117.188 9.67222 116.361 9.05754L115.168 10.6625C115.693 11.0531 116.047 11.5282 116.254 12.0997L118.134 11.4163ZM116.361 9.05754C115.545 8.45112 114.648 8.106 113.684 8.106V10.106C114.142 10.106 114.631 10.2635 115.168 10.6625L116.361 9.05754ZM113.684 8.106C112.773 8.106 111.937 8.36616 111.216 8.9009L112.408 10.5071C112.762 10.2445 113.174 10.106 113.684 10.106V8.106ZM111.233 8.88849C110.543 9.3785 110.018 10.0316 109.656 10.8205L111.473 11.6555C111.7 11.1617 112.007 10.7922 112.391 10.5195L111.233 8.88849ZM109.66 10.811C109.299 11.5758 109.122 12.3986 109.122 13.266H111.122C111.122 12.6774 111.24 12.1482 111.468 11.665L109.66 10.811ZM109.122 13.266C109.122 14.1646 109.322 15.0108 109.732 15.7868L111.501 14.8532C111.251 14.3812 111.122 13.8581 111.122 13.266H109.122ZM109.737 15.7971C110.142 16.5427 110.695 17.1538 111.394 17.612L112.491 15.94C112.08 15.6702 111.749 15.3106 111.495 14.8429L109.737 15.7971ZM111.424 17.6312C112.166 18.0809 112.998 18.296 113.892 18.296V16.296C113.33 16.296 112.863 16.1644 112.461 15.9208L111.424 17.6312ZM113.892 18.296C114.783 18.296 115.625 17.9996 116.402 17.4746L115.282 15.8174C114.777 16.159 114.318 16.296 113.892 16.296V18.296ZM116.392 17.4814C117.206 16.9457 117.807 16.2374 118.133 15.3537L116.256 14.6623C116.096 15.096 115.796 15.4796 115.293 15.8106L116.392 17.4814ZM124.878 4.478H123.878V5.478H124.878V4.478ZM124.878 1.02V0.0199995H123.878V1.02H124.878ZM128.362 1.02H129.362V0.0199995H128.362V1.02ZM128.362 4.478V5.478H129.362V4.478H128.362ZM124.878 20H123.878V21H124.878V20ZM124.878 6.376V5.376H123.878V6.376H124.878ZM128.362 6.376H129.362V5.376H128.362V6.376ZM128.362 20V21H129.362V20H128.362ZM125.878 4.478V1.02H123.878V4.478H125.878ZM124.878 2.02H128.362V0.0199995H124.878V2.02ZM127.362 1.02V4.478H129.362V1.02H127.362ZM128.362 3.478H124.878V5.478H128.362V3.478ZM125.878 20V6.376H123.878V20H125.878ZM124.878 7.376H128.362V5.376H124.878V7.376ZM127.362 6.376V20H129.362V6.376H127.362ZM128.362 19H124.878V21H128.362V19ZM134.729 19.298L134.2 20.1468L134.208 20.1518L134.217 20.1567L134.729 19.298ZM132.285 16.698L131.402 17.1678L132.285 16.698ZM132.285 9.704L131.408 9.22313L131.402 9.23415L132.285 9.704ZM134.755 7.13L135.274 7.98502L135.278 7.9826L134.755 7.13ZM142.373 7.13L141.844 7.97878L141.852 7.98382L141.861 7.98871L142.373 7.13ZM144.843 16.698L145.726 17.1678L145.726 17.1678L144.843 16.698ZM142.373 19.298L142.892 20.153L142.896 20.1506L142.373 19.298ZM135.483 15.346L134.589 15.7932L134.594 15.8033L135.483 15.346ZM136.757 16.776L137.299 15.9357L137.299 15.9357L136.757 16.776ZM140.371 16.776L140.913 17.6163L140.923 17.6102L140.932 17.6039L140.371 16.776ZM141.645 15.32L140.761 14.8532L140.756 14.8627L141.645 15.32ZM141.645 11.108L140.751 11.5552L140.758 11.5703L140.766 11.5851L141.645 11.108ZM140.371 9.652L139.81 10.4799L139.819 10.4862L139.829 10.4923L140.371 9.652ZM136.757 9.652L137.299 10.4923L137.309 10.4862L137.318 10.4799L136.757 9.652ZM135.483 11.108L136.372 11.5654L136.377 11.5552L135.483 11.108ZM138.577 19.26C137.232 19.26 136.134 18.9719 135.241 18.4393L134.217 20.1567C135.473 20.9068 136.941 21.26 138.577 21.26V19.26ZM135.258 18.4492C134.346 17.8813 133.655 17.1438 133.168 16.2282L131.402 17.1678C132.059 18.4015 132.997 19.3974 134.2 20.1468L135.258 18.4492ZM133.168 16.2282C132.675 15.3019 132.427 14.3024 132.427 13.214H130.427C130.427 14.6216 130.751 15.9448 131.402 17.1678L133.168 16.2282ZM132.427 13.214C132.427 12.1058 132.676 11.0981 133.168 10.1738L131.402 9.23415C130.75 10.4592 130.427 11.7915 130.427 13.214H132.427ZM133.162 10.1848C133.666 9.26563 134.365 8.5361 135.274 7.98501L134.236 6.27499C133.03 7.00656 132.083 7.99303 131.408 9.22317L133.162 10.1848ZM135.278 7.9826C136.17 7.4356 137.256 7.142 138.577 7.142V5.142C136.951 5.142 135.489 5.50707 134.232 6.2774L135.278 7.9826ZM138.577 7.142C139.898 7.142 140.973 7.43576 141.844 7.97878L142.902 6.28122C141.659 5.5069 140.203 5.142 138.577 5.142V7.142ZM141.861 7.98871C142.783 8.53935 143.476 9.2648 143.96 10.1738L145.726 9.23415C145.066 7.99386 144.112 7.00331 142.885 6.27129L141.861 7.98871ZM143.96 10.1738C144.452 11.0981 144.701 12.1058 144.701 13.214H146.701C146.701 11.7915 146.378 10.4592 145.726 9.23415L143.96 10.1738ZM144.701 13.214C144.701 14.3024 144.453 15.3019 143.96 16.2282L145.726 17.1678C146.377 15.9448 146.701 14.6216 146.701 13.214H144.701ZM143.96 16.2282C143.475 17.1397 142.779 17.8765 141.85 18.4454L142.896 20.1506C144.117 19.4022 145.067 18.4057 145.726 17.1678L143.96 16.2282ZM141.854 18.443C140.981 18.9727 139.903 19.26 138.577 19.26V21.26C140.198 21.26 141.65 20.9059 142.892 20.153L141.854 18.443ZM134.015 13.214C134.015 14.1443 134.198 15.0117 134.589 15.7932L136.377 14.8988C136.144 14.4323 136.015 13.8784 136.015 13.214H134.015ZM134.594 15.8033C134.98 16.5551 135.52 17.1682 136.215 17.6163L137.299 15.9357C136.919 15.6904 136.61 15.3502 136.372 14.8887L134.594 15.8033ZM136.215 17.6163C136.923 18.0733 137.72 18.296 138.577 18.296V16.296C138.082 16.296 137.665 16.172 137.299 15.9357L136.215 17.6163ZM138.577 18.296C139.422 18.296 140.209 18.0705 140.913 17.6163L139.829 15.9357C139.458 16.1749 139.049 16.296 138.577 16.296V18.296ZM140.932 17.6039C141.615 17.141 142.15 16.5252 142.534 15.7773L140.756 14.8627C140.516 15.3281 140.201 15.683 139.81 15.9481L140.932 17.6039ZM142.529 15.7868C142.944 15.0011 143.139 14.1266 143.139 13.188H141.139C141.139 13.8441 141.005 14.3909 140.761 14.8532L142.529 15.7868ZM143.139 13.188C143.139 12.2633 142.943 11.4022 142.524 10.6309L140.766 11.5851C141.006 12.0271 141.139 12.5527 141.139 13.188H143.139ZM142.539 10.6608C142.155 9.89161 141.615 9.26421 140.913 8.8117L139.829 10.4923C140.202 10.7331 140.511 11.0764 140.751 11.5552L142.539 10.6608ZM140.932 8.82408C140.226 8.34618 139.432 8.106 138.577 8.106V10.106C139.039 10.106 139.441 10.2298 139.81 10.4799L140.932 8.82408ZM138.577 8.106C137.71 8.106 136.906 8.3431 136.196 8.82408L137.318 10.4799C137.682 10.2329 138.092 10.106 138.577 10.106V8.106ZM136.215 8.8117C135.513 9.26421 134.973 9.89161 134.589 10.6608L136.377 11.5552C136.617 11.0764 136.926 10.7331 137.299 10.4923L136.215 8.8117ZM134.594 10.6507C134.198 11.4209 134.015 12.2844 134.015 13.214H136.015C136.015 12.5489 136.144 12.0085 136.372 11.5653L134.594 10.6507Z" fill="black" fill-opacity="0.2"/>
</svg>
